<svg xmlns="http://www.w3.org/2000/svg" xmlns:xlink="http://www.w3.org/1999/xlink" width="2000" zoomAndPan="magnify" viewBox="0 0 1500 1499.999933" height="2000" preserveAspectRatio="xMidYMid meet" version="1.0"><path fill="#0cc0df" d="M 1154.269531 715.589844 C 1151.339844 723.929688 1146.128906 731.941406 1138.878906 738.921875 C 1115.507812 761.441406 953.714844 790.679688 892.902344 801.003906 C 878.597656 803.4375 869.871094 804.824219 869.871094 804.824219 L 824.023438 739.753906 C 824.023438 739.753906 1063.308594 639.746094 1113.746094 653.175781 C 1151.527344 663.242188 1163.027344 690.753906 1154.269531 715.589844 Z M 1154.269531 715.589844 " fill-opacity="1" fill-rule="nonzero"/><path fill="#0cc0df" d="M 1154.269531 715.589844 C 1151.339844 723.929688 1146.128906 731.941406 1138.878906 738.921875 C 1115.507812 761.441406 953.714844 790.679688 892.902344 801.003906 C 891.890625 784.40625 890.363281 765.238281 890.363281 765.238281 C 890.363281 765.238281 1086.003906 741.054688 1129.609375 719.644531 C 1136.875 716.101562 1145.402344 714.917969 1154.269531 715.589844 Z M 1154.269531 715.589844 " fill-opacity="1" fill-rule="nonzero"/><path fill="#2b2b2b" d="M 826.953125 740.605469 C 842.507812 761.539062 857.582031 781.996094 872.355469 803.066406 L 869.390625 801.816406 L 869.398438 801.816406 C 897.480469 794.285156 925.945312 789.125 954.386719 783.871094 C 982.8125 778.519531 1011.171875 772.835938 1039.3125 766.398438 C 1053.375 763.160156 1067.382812 759.726562 1081.234375 755.902344 C 1095.050781 752.066406 1108.863281 747.910156 1121.667969 742.4375 C 1123.308594 741.800781 1124.777344 740.996094 1126.316406 740.261719 C 1127.070312 739.886719 1127.859375 739.527344 1128.582031 739.128906 L 1130.652344 737.886719 C 1131.308594 737.464844 1132.105469 737.082031 1132.644531 736.632812 L 1134.285156 735.328125 C 1134.847656 734.96875 1135.433594 734.339844 1136.011719 733.746094 C 1136.585938 733.144531 1137.207031 732.585938 1137.738281 731.949219 C 1142.207031 727.054688 1145.886719 721.484375 1148.277344 715.449219 C 1150.730469 709.445312 1151.773438 702.984375 1151.304688 696.710938 C 1150.835938 690.421875 1148.597656 684.40625 1145.101562 679.144531 C 1141.523438 673.914062 1136.601562 669.523438 1130.964844 666.070312 C 1125.289062 662.664062 1118.96875 660.113281 1112.359375 658.292969 C 1109.558594 657.546875 1106.25 657.230469 1102.886719 657.195312 C 1099.515625 657.160156 1096.0625 657.285156 1092.582031 657.621094 C 1085.625 658.222656 1078.589844 659.378906 1071.59375 660.691406 C 1057.582031 663.375 1043.621094 666.914062 1029.734375 670.761719 C 1015.855469 674.613281 1002.054688 678.84375 988.296875 683.253906 C 960.789062 692.097656 933.445312 701.570312 906.285156 711.542969 C 892.699219 716.519531 879.144531 721.609375 865.628906 726.796875 L 845.367188 734.605469 L 835.257812 738.570312 L 830.214844 740.570312 L 826.441406 742.082031 L 825.8125 742.332031 L 825.496094 742.457031 C 825.539062 742.4375 825.175781 742.597656 825.558594 742.421875 C 826.222656 742.109375 826.839844 741.277344 826.953125 740.605469 Z M 821.097656 738.921875 C 821.308594 738.207031 822.035156 737.332031 822.792969 736.992188 L 823.160156 736.824219 L 823.476562 736.691406 L 824.105469 736.425781 L 825.355469 735.886719 L 827.859375 734.816406 L 832.875 732.699219 L 842.914062 728.496094 L 863.042969 720.21875 C 876.492188 714.785156 889.996094 709.449219 903.53125 704.222656 C 930.617188 693.789062 957.855469 683.695312 985.429688 674.480469 C 999.230469 669.898438 1013.09375 665.488281 1027.097656 661.441406 C 1041.109375 657.40625 1055.234375 653.660156 1069.648438 650.742188 C 1076.871094 649.308594 1084.144531 648.023438 1091.625 647.296875 C 1095.359375 646.90625 1099.160156 646.707031 1103.027344 646.707031 C 1106.90625 646.730469 1110.878906 646.988281 1115.09375 648.050781 C 1122.492188 649.996094 1129.769531 652.804688 1136.558594 656.789062 C 1143.3125 660.824219 1149.535156 666.171875 1154.21875 672.886719 C 1158.847656 679.605469 1161.839844 687.609375 1162.460938 695.796875 C 1163.105469 703.96875 1161.75 712.191406 1158.757812 719.609375 C 1155.828125 727.078125 1151.394531 733.789062 1146.128906 739.613281 C 1145.492188 740.367188 1144.773438 741.03125 1144.09375 741.738281 C 1143.417969 742.4375 1142.765625 743.136719 1141.835938 743.84375 L 1139.238281 745.917969 C 1138.363281 746.605469 1137.507812 747.015625 1136.644531 747.574219 L 1134.050781 749.136719 C 1133.1875 749.609375 1132.320312 750.007812 1131.460938 750.441406 C 1129.734375 751.28125 1128.007812 752.203125 1126.273438 752.890625 C 1112.425781 758.859375 1098.414062 763.078125 1084.347656 767.054688 C 1070.265625 770.992188 1056.136719 774.5 1041.957031 777.820312 C 1013.613281 784.414062 985.144531 790.222656 956.632812 795.691406 C 928.113281 801.1875 899.496094 806.117188 870.347656 807.835938 L 868.472656 808.136719 L 867.375 806.585938 C 851.605469 784.269531 836.109375 761.355469 821.097656 738.921875 Z M 821.097656 738.921875 " fill-opacity="1" fill-rule="nonzero"/><path fill="#0cc0df" d="M 1151.378906 738.558594 C 1116.199219 775.382812 1074.296875 754.589844 1074.296875 754.589844 L 1070.285156 751.015625 C 1066.816406 747.910156 1063.554688 744.6875 1060.484375 741.320312 C 1040.597656 719.464844 1029.300781 692.238281 1028.726562 664.117188 C 1028.726562 664.117188 1069.019531 629.160156 1115.816406 633.277344 C 1122.609375 633.867188 1128.945312 635.730469 1134.664062 638.613281 C 1168.308594 655.492188 1181.429688 707.089844 1151.378906 738.558594 Z M 1151.378906 738.558594 " fill-opacity="1" fill-rule="nonzero"/><path fill="#0cc0df" d="M 1151.378906 738.558594 C 1116.199219 775.382812 1074.296875 754.589844 1074.296875 754.589844 L 1070.285156 751.015625 C 1066.816406 747.910156 1063.554688 744.6875 1060.484375 741.320312 L 1061.910156 738.296875 C 1061.910156 738.296875 1092.449219 744.953125 1123.75 727.140625 C 1149.5 712.492188 1146.128906 666.570312 1134.664062 638.613281 C 1168.308594 655.492188 1181.429688 707.089844 1151.378906 738.558594 Z M 1151.378906 738.558594 " fill-opacity="1" fill-rule="nonzero"/><path fill="#2b2b2b" d="M 1030.714844 666.417969 C 1032.816406 661.710938 1031.292969 665.125 1031.769531 664.082031 L 1031.769531 664.160156 L 1031.777344 664.257812 L 1031.78125 664.453125 L 1031.796875 664.851562 L 1031.839844 665.640625 L 1031.917969 667.230469 C 1031.980469 668.285156 1031.992188 669.347656 1032.097656 670.394531 C 1032.335938 672.5 1032.480469 674.613281 1032.789062 676.710938 C 1033.40625 680.898438 1034.1875 685.066406 1035.277344 689.160156 C 1037.40625 697.363281 1040.472656 705.320312 1044.359375 712.855469 C 1048.25 720.398438 1052.953125 727.523438 1058.324219 734.101562 C 1061.015625 737.398438 1063.875 740.542969 1066.875 743.5625 C 1069.886719 746.554688 1073.039062 749.402344 1076.320312 752.316406 L 1075.648438 751.863281 C 1078.402344 752.75 1081.554688 753.574219 1084.582031 754.132812 C 1087.644531 754.742188 1090.730469 755.132812 1093.792969 755.394531 C 1099.945312 755.867188 1106.070312 755.546875 1112.019531 754.511719 C 1118.003906 753.539062 1123.644531 751.335938 1129.105469 748.8125 L 1133.042969 746.5625 L 1135.011719 745.445312 L 1136.851562 744.085938 L 1140.523438 741.382812 C 1141.160156 740.960938 1141.726562 740.445312 1142.269531 739.90625 L 1143.957031 738.332031 C 1153.304688 730.371094 1159.449219 719.554688 1161.890625 707.722656 C 1164.390625 695.914062 1162.929688 683.296875 1158.371094 672.027344 C 1153.695312 660.847656 1145.992188 650.703125 1135.65625 644.515625 C 1130.539062 641.410156 1124.875 639.171875 1118.953125 638.1875 C 1117.449219 638.027344 1116.023438 637.683594 1114.445312 637.648438 L 1109.773438 637.425781 L 1107.433594 637.304688 C 1106.65625 637.292969 1105.871094 637.367188 1105.089844 637.390625 L 1100.390625 637.605469 C 1075.347656 639.625 1050.882812 651.03125 1030.714844 666.417969 Z M 1026.726562 661.824219 C 1037.089844 652.964844 1048.4375 645.910156 1060.660156 640.15625 C 1063.734375 638.773438 1066.804688 637.367188 1069.984375 636.230469 C 1073.117188 634.941406 1076.367188 633.96875 1079.605469 632.964844 C 1081.207031 632.410156 1082.878906 632.046875 1084.527344 631.648438 L 1089.5 630.480469 L 1094.566406 629.699219 C 1096.257812 629.476562 1097.929688 629.097656 1099.65625 629.046875 L 1104.796875 628.710938 C 1105.65625 628.671875 1106.507812 628.574219 1107.363281 628.574219 L 1109.949219 628.644531 L 1115.109375 628.796875 C 1116.828125 628.808594 1118.632812 629.160156 1120.386719 629.335938 C 1127.449219 630.375 1134.28125 632.90625 1140.4375 636.488281 C 1146.613281 640.058594 1152.082031 644.773438 1156.609375 650.199219 C 1161.175781 655.609375 1164.894531 661.699219 1167.582031 668.214844 C 1172.929688 681.210938 1174.746094 695.789062 1171.90625 709.746094 C 1170.515625 716.707031 1168.015625 723.484375 1164.453125 729.671875 C 1160.9375 735.84375 1156.269531 741.5 1151.039062 746.039062 L 1149.121094 747.835938 C 1148.5 748.449219 1147.855469 749.03125 1147.128906 749.535156 L 1142.898438 752.699219 L 1140.773438 754.265625 L 1138.480469 755.601562 L 1133.875 758.257812 C 1132.285156 759.050781 1130.628906 759.699219 1129 760.398438 L 1126.546875 761.425781 C 1125.714844 761.734375 1124.847656 761.949219 1123.996094 762.214844 C 1122.296875 762.710938 1120.589844 763.25 1118.878906 763.691406 L 1113.632812 764.59375 C 1106.613281 765.542969 1099.496094 765.410156 1092.625 764.1875 C 1089.199219 763.558594 1085.820312 762.726562 1082.550781 761.582031 C 1079.226562 760.476562 1076.152344 759.125 1072.933594 757.292969 L 1072.496094 757.042969 L 1072.265625 756.839844 C 1069.035156 753.980469 1065.726562 750.988281 1062.558594 747.847656 C 1059.421875 744.6875 1056.421875 741.394531 1053.605469 737.941406 C 1047.96875 731.042969 1043.027344 723.558594 1038.941406 715.632812 C 1034.851562 707.703125 1031.621094 699.320312 1029.371094 690.671875 C 1028.230469 686.351562 1027.398438 681.953125 1026.757812 677.535156 C 1026.425781 675.324219 1026.265625 673.089844 1026.023438 670.871094 C 1025.917969 669.761719 1025.894531 668.640625 1025.832031 667.523438 L 1025.75 665.84375 L 1025.707031 665.003906 L 1025.695312 664.585938 L 1025.6875 664.375 L 1025.679688 664.273438 L 1025.679688 664.195312 C 1026.148438 663.144531 1024.636719 666.550781 1026.726562 661.824219 Z M 1026.726562 661.824219 " fill-opacity="1" fill-rule="nonzero"/><path fill="#0cc0df" d="M 672.066406 695.585938 L 624.300781 724.945312 L 604.257812 737.261719 C 604.257812 737.261719 484.238281 661.496094 420.671875 609.269531 C 401.03125 593.140625 386.789062 579.242188 383.113281 570.515625 C 367.550781 533.542969 388.425781 494.0625 440.066406 501.628906 C 491.707031 509.21875 672.066406 695.585938 672.066406 695.585938 Z M 672.066406 695.585938 " fill-opacity="1" fill-rule="nonzero"/><path fill="#0cc0df" d="M 624.300781 724.945312 L 604.257812 737.261719 C 604.257812 737.261719 484.238281 661.496094 420.671875 609.269531 L 456.203125 602.71875 C 456.195312 602.710938 568.765625 688.625 624.300781 724.945312 Z M 624.300781 724.945312 " fill-opacity="1" fill-rule="nonzero"/><path fill="#2b2b2b" d="M 675.085938 695.964844 C 652.433594 710.648438 629.160156 725.585938 605.855469 739.84375 L 604.234375 740.835938 L 602.640625 739.824219 L 602.632812 739.824219 C 577.941406 724.539062 553.589844 708.800781 529.375 692.789062 C 505.171875 676.78125 481.210938 660.378906 457.691406 643.296875 C 445.9375 634.746094 434.292969 626.019531 422.875 616.9375 C 411.46875 607.820312 400.222656 598.503906 389.851562 587.6875 C 388.523438 586.386719 387.316406 584.875 386.054688 583.449219 C 385.433594 582.714844 384.796875 582.023438 384.195312 581.261719 L 382.441406 578.855469 C 381.875 578.015625 381.253906 577.316406 380.730469 576.367188 L 379.183594 573.515625 C 378.617188 572.535156 378.300781 571.648438 377.953125 570.738281 C 377.617188 569.828125 377.210938 568.949219 376.933594 568.011719 C 374.386719 560.671875 372.960938 552.847656 373.191406 544.925781 C 373.339844 537.019531 375.289062 529.027344 379.042969 521.859375 C 382.777344 514.667969 388.585938 508.5625 395.382812 504.214844 C 402.242188 499.90625 409.988281 497.417969 417.734375 496.335938 C 425.503906 495.3125 433.277344 495.550781 440.820312 496.628906 C 445.09375 497.285156 448.839844 498.59375 452.414062 500.074219 C 455.972656 501.578125 459.398438 503.226562 462.675781 505.046875 C 469.277344 508.617188 475.484375 512.632812 481.582031 516.757812 C 505.820312 533.425781 528.082031 552.230469 549.863281 571.523438 C 571.605469 590.839844 592.832031 610.679688 613.472656 631.105469 C 623.796875 641.304688 634.136719 651.492188 644.226562 661.929688 L 659.34375 677.597656 L 666.835938 685.492188 L 670.558594 689.46875 L 672.410156 691.460938 L 673.332031 692.460938 L 673.792969 692.964844 L 674.023438 693.214844 L 674.296875 693.523438 C 674.855469 694.132812 675.171875 695.222656 675.085938 695.964844 Z M 669.046875 695.203125 C 668.878906 695.859375 669.117188 696.867188 669.597656 697.40625 C 669.878906 697.71875 669.605469 697.425781 669.640625 697.46875 L 669.394531 697.230469 L 668.914062 696.753906 L 667.941406 695.8125 L 666 693.914062 L 662.105469 690.140625 L 654.316406 682.574219 L 638.667969 667.523438 C 628.167969 657.558594 617.777344 647.484375 607.214844 637.605469 C 586.058594 617.863281 564.867188 598.171875 543.128906 579.15625 C 532.265625 569.648438 521.230469 560.34375 510.066406 551.246094 C 498.898438 542.164062 487.539062 533.328125 475.773438 525.246094 C 469.886719 521.230469 463.90625 517.351562 457.777344 514.007812 C 454.71875 512.304688 451.609375 510.800781 448.496094 509.472656 C 445.402344 508.15625 442.234375 507.109375 439.332031 506.652344 C 432.542969 505.660156 425.699219 505.457031 419.085938 506.296875 C 412.492188 507.207031 406.164062 509.261719 400.703125 512.660156 C 395.304688 516.113281 390.777344 520.824219 387.796875 526.511719 C 384.820312 532.171875 383.167969 538.621094 383.035156 545.199219 C 382.8125 551.777344 383.992188 558.449219 386.167969 564.796875 C 386.40625 565.601562 386.761719 566.367188 387.050781 567.160156 C 387.351562 567.949219 387.644531 568.765625 388.019531 569.347656 L 389.046875 571.285156 C 389.378906 571.933594 389.964844 572.613281 390.40625 573.269531 L 391.824219 575.277344 C 392.335938 575.941406 392.921875 576.582031 393.46875 577.242188 C 394.59375 578.542969 395.628906 579.882812 396.878906 581.128906 C 406.472656 591.34375 417.492188 600.703125 428.628906 609.78125 C 439.800781 618.855469 451.28125 627.621094 462.871094 636.234375 C 509.414062 670.5 557.425781 703.011719 605.886719 734.667969 L 605.890625 734.667969 L 602.675781 734.648438 C 624.558594 721.140625 646.492188 708.296875 669.046875 695.203125 Z M 669.046875 695.203125 " fill-opacity="1" fill-rule="nonzero"/><path fill="#0cc0df" d="M 513.863281 545.273438 C 502.542969 570.234375 482.167969 590.398438 456.214844 602.71875 C 451.449219 604.992188 446.5 606.976562 441.367188 608.703125 L 436.277344 610.386719 C 436.277344 610.386719 389.566406 612.96875 371.792969 565.222656 C 362.683594 540.75 370.695312 515.777344 386.683594 499.214844 C 401.886719 483.492188 424.285156 475.375 446.035156 482.53125 C 490.628906 497.242188 513.863281 545.273438 513.863281 545.273438 Z M 513.863281 545.273438 " fill-opacity="1" fill-rule="nonzero"/><path fill="#0cc0df" d="M 463.300781 597.578125 L 456.214844 602.710938 C 451.449219 604.984375 446.5 606.96875 441.367188 608.695312 L 436.277344 610.378906 C 436.277344 610.378906 389.566406 612.960938 371.792969 565.214844 C 362.683594 540.746094 370.695312 515.769531 386.683594 499.207031 C 382.972656 520.195312 375.441406 596.746094 463.300781 597.578125 Z M 463.300781 597.578125 " fill-opacity="1" fill-rule="nonzero"/><path fill="#2b2b2b" d="M 429.796875 482.980469 C 415.121094 482.980469 400.3125 489.449219 388.789062 501.425781 C 372.101562 518.761719 366.675781 542.800781 374.632812 564.167969 C 390.734375 607.402344 431 607.5 435.71875 607.367188 L 440.394531 605.800781 C 471.851562 595.273438 497.3125 573.285156 510.472656 545.332031 C 506.464844 537.765625 483.929688 498.230469 445.070312 485.414062 C 440.101562 483.785156 434.957031 482.980469 429.796875 482.980469 Z M 435.367188 613.449219 C 428.074219 613.449219 385.753906 611.449219 368.933594 566.285156 C 360.152344 542.710938 366.082031 516.238281 384.414062 497.203125 C 401.625 479.316406 425.609375 472.589844 446.988281 479.636719 C 492.300781 494.578125 515.632812 541.933594 516.601562 543.941406 L 517.226562 545.226562 L 516.636719 546.527344 C 502.96875 576.640625 475.882812 600.347656 442.332031 611.578125 L 436.855469 613.40625 L 436.445312 613.429688 C 436.402344 613.4375 436.023438 613.449219 435.367188 613.449219 Z M 435.367188 613.449219 " fill-opacity="1" fill-rule="nonzero"/><path fill="#0cc0df" d="M 882.375 1274.523438 L 811.234375 1287.597656 C 804.3125 1288.875 797.453125 1288.386719 791.1875 1286.457031 C 778.429688 1282.542969 768.039062 1272.65625 764.203125 1259.386719 C 764.0625 1258.917969 763.914062 1258.457031 763.816406 1257.988281 L 722.910156 1094.386719 C 718.464844 1076.570312 653.617188 1017.121094 652.890625 989.527344 L 656.824219 988.800781 L 694.769531 981.835938 L 676.773438 909.789062 C 671.054688 886.855469 686.855469 863.894531 710.898438 860.183594 L 741.234375 855.519531 C 760.648438 852.535156 779.402344 863.210938 786.113281 881.066406 L 908.507812 1206.382812 L 913.960938 1220.871094 C 922.769531 1244.230469 907.675781 1269.875 882.375 1274.523438 Z M 882.375 1274.523438 " fill-opacity="1" fill-rule="nonzero"/><path fill="#0cc0df" d="M 806.730469 1214.773438 L 791.191406 1286.457031 C 778.429688 1282.542969 768.039062 1272.65625 764.203125 1259.386719 C 764.0625 1258.917969 763.914062 1258.457031 763.816406 1257.988281 L 722.910156 1094.386719 C 718.464844 1076.570312 653.617188 1017.121094 652.890625 989.527344 L 656.824219 988.800781 L 737.214844 1029.929688 Z M 806.730469 1214.773438 " fill-opacity="1" fill-rule="nonzero"/><path fill="#2b2b2b" d="M 919.855469 1218.632812 C 921.964844 1224.296875 922.996094 1230.386719 922.777344 1236.46875 C 922.566406 1242.53125 921.113281 1248.542969 918.597656 1254.046875 C 913.578125 1265.089844 904.066406 1273.851562 892.882812 1278.355469 C 891.457031 1278.871094 890.050781 1279.425781 888.617188 1279.878906 L 884.234375 1280.957031 C 881.507812 1281.535156 879.066406 1281.957031 876.457031 1282.457031 L 861.085938 1285.382812 L 830.335938 1291.210938 L 814.960938 1294.132812 C 813.675781 1294.371094 812.472656 1294.625 810.871094 1294.839844 C 809.367188 1295.042969 807.863281 1295.308594 806.332031 1295.332031 C 804.808594 1295.40625 803.292969 1295.519531 801.761719 1295.40625 C 800.238281 1295.34375 798.707031 1295.300781 797.195312 1295.058594 C 785.058594 1293.601562 773.5 1287.367188 765.707031 1277.738281 C 764.707031 1276.566406 763.867188 1275.25 762.957031 1274 C 762.113281 1272.707031 761.371094 1271.34375 760.59375 1270.007812 C 759.902344 1268.617188 759.28125 1267.203125 758.636719 1265.785156 L 757.15625 1261.511719 C 756.628906 1259.695312 756.371094 1258.570312 756.042969 1257.289062 L 755.085938 1253.5 L 753.167969 1245.914062 L 745.511719 1215.570312 L 730.550781 1154.8125 L 715.9375 1094.964844 C 715.308594 1093.335938 714.078125 1091.21875 712.855469 1089.234375 C 711.554688 1087.207031 710.164062 1085.148438 708.675781 1083.117188 C 705.726562 1079.023438 702.558594 1074.964844 699.347656 1070.90625 C 692.945312 1062.769531 686.371094 1054.625 679.945312 1046.304688 C 673.589844 1037.929688 667.257812 1029.457031 661.683594 1020.324219 C 658.886719 1015.765625 656.230469 1011.089844 653.992188 1006.082031 C 651.785156 1001.089844 649.925781 995.6875 649.855469 989.609375 L 649.855469 989.601562 L 649.632812 987.023438 L 652.34375 986.527344 L 694.214844 978.835938 L 694.222656 978.828125 L 691.820312 982.570312 L 673.417969 910.933594 C 671.703125 904.503906 671.558594 897.539062 673.011719 890.972656 C 674.453125 884.394531 677.445312 878.1875 681.617188 872.921875 C 685.777344 867.640625 691.152344 863.316406 697.222656 860.390625 C 700.265625 858.945312 703.4375 857.769531 706.710938 857 C 710.101562 856.203125 713.058594 855.804688 716.105469 855.300781 L 734.363281 852.386719 C 737.453125 851.917969 740.289062 851.367188 743.785156 851.023438 C 745.464844 850.855469 747.164062 850.855469 748.855469 850.835938 C 750.539062 850.945312 752.246094 850.941406 753.917969 851.234375 C 767.402344 852.835938 779.996094 860.957031 787 872.773438 C 787.804688 874.285156 788.707031 875.753906 789.328125 877.355469 L 790.328125 879.695312 L 791.15625 881.855469 L 794.453125 890.484375 L 801.054688 907.761719 L 814.253906 942.296875 Z M 908.082031 1223.066406 L 805.339844 945.675781 L 792.496094 910.996094 L 786.078125 893.664062 L 782.871094 884.996094 L 782.066406 882.828125 L 781.261719 880.914062 C 780.785156 879.617188 780.058594 878.457031 779.445312 877.242188 C 773.957031 867.761719 763.851562 860.992188 752.820312 859.582031 C 751.457031 859.316406 750.058594 859.328125 748.679688 859.203125 C 747.296875 859.21875 745.898438 859.191406 744.515625 859.324219 C 741.871094 859.539062 738.640625 860.089844 735.632812 860.523438 L 717.34375 863.238281 C 714.304688 863.683594 711.144531 864.105469 708.527344 864.699219 C 705.792969 865.300781 703.152344 866.242188 700.605469 867.410156 C 695.53125 869.761719 691.015625 873.3125 687.496094 877.660156 C 680.378906 886.324219 677.421875 898.25 680.269531 909.234375 L 697.734375 981.09375 L 698.503906 984.269531 L 695.328125 984.828125 L 695.320312 984.828125 L 653.449219 992.527344 L 655.945312 989.449219 L 655.945312 989.457031 C 656.460938 993.847656 658.488281 998.378906 660.824219 1002.726562 C 663.214844 1007.074219 666.070312 1011.285156 669.074219 1015.386719 C 675.15625 1023.574219 681.722656 1031.539062 688.519531 1039.347656 L 709.046875 1062.964844 C 712.449219 1066.972656 715.839844 1071.019531 719.15625 1075.285156 C 720.8125 1077.402344 722.441406 1079.613281 724.027344 1081.925781 C 725.585938 1084.339844 727.1875 1086.640625 728.53125 1089.847656 C 728.875 1090.667969 729.175781 1091.644531 729.46875 1092.554688 L 729.984375 1094.496094 L 730.972656 1098.285156 L 732.949219 1105.859375 L 736.898438 1121.007812 L 744.625 1151.359375 L 760.035156 1212.054688 L 767.566406 1242.453125 L 771.242188 1257.207031 C 772.472656 1261.527344 774.417969 1265.175781 777.101562 1268.53125 C 782.4375 1275.167969 790.492188 1279.628906 799.046875 1280.78125 C 800.109375 1280.984375 801.195312 1281.003906 802.277344 1281.066406 C 803.355469 1281.179688 804.4375 1281.082031 805.523438 1281.054688 C 806.605469 1281.066406 807.683594 1280.871094 808.765625 1280.746094 C 809.757812 1280.648438 811.117188 1280.394531 812.394531 1280.164062 L 827.804688 1277.425781 L 858.621094 1271.945312 L 874.03125 1269.203125 C 876.5625 1268.742188 879.261719 1268.300781 881.644531 1267.820312 L 884.871094 1267.0625 C 885.917969 1266.742188 886.9375 1266.335938 887.988281 1265.992188 C 896.140625 1262.804688 903.144531 1256.535156 906.878906 1248.5625 C 910.648438 1240.621094 911.082031 1231.34375 908.082031 1223.066406 Z M 908.082031 1223.066406 " fill-opacity="1" fill-rule="nonzero"/><path fill="#0cc0df" d="M 710.714844 950.269531 L 688.601562 1008.90625 C 682.128906 1014.046875 670.402344 1021.449219 656.789062 1029.6875 C 624.8125 1048.980469 582.386719 1072.746094 573.074219 1081.648438 L 456.363281 1193.03125 L 451.085938 1198.0625 C 448.707031 1200.328125 446.136719 1202.246094 443.394531 1203.804688 C 428.375 1212.339844 408.757812 1210.292969 395.1875 1197.75 L 342.03125 1148.6875 C 323.140625 1131.238281 324.074219 1101.515625 344.015625 1086.4375 L 351.460938 1080.816406 L 633.640625 867.542969 C 648.863281 856.042969 670.425781 857.035156 685.238281 869.914062 L 708.386719 890.085938 C 726.726562 906.074219 727.804688 933.9375 710.714844 950.269531 Z M 710.714844 950.269531 " fill-opacity="1" fill-rule="nonzero"/><path fill="#f6f4f1" d="M 517.859375 981.148438 L 382.847656 1077.074219 L 368.585938 1074.832031 L 360.976562 1073.605469 L 353.328125 1072.410156 L 505.625 958.160156 L 507.960938 962.539062 L 510.289062 966.921875 Z M 517.859375 981.148438 " fill-opacity="1" fill-rule="nonzero"/><path fill="#0cc0df" d="M 661.816406 1017.910156 C 661.710938 1018.570312 659.847656 1022.867188 656.785156 1029.6875 C 624.804688 1048.980469 582.378906 1072.746094 573.066406 1081.648438 L 456.355469 1193.03125 L 451.078125 1198.0625 C 448.699219 1200.328125 446.128906 1202.246094 443.386719 1203.804688 L 448.503906 1119.171875 L 591.683594 1009.128906 C 591.699219 1009.125 662.550781 1013.535156 661.816406 1017.910156 Z M 661.816406 1017.910156 " fill-opacity="1" fill-rule="nonzero"/><path fill="#2b2b2b" d="M 708.082031 948.640625 L 707.878906 949.183594 L 686.148438 1007.117188 C 685.15625 1007.703125 684.199219 1008.269531 683.269531 1008.886719 L 681.871094 1009.816406 L 680.183594 1010.84375 C 677.953125 1012.242188 675.738281 1013.667969 673.445312 1015.023438 C 668.941406 1017.785156 664.3125 1020.421875 659.726562 1023.078125 C 659.707031 1023.078125 659.707031 1023.09375 659.683594 1023.09375 L 631.769531 1038.835938 C 622.433594 1044.054688 613.140625 1049.386719 603.828125 1054.765625 C 599.179688 1057.421875 594.558594 1060.191406 589.953125 1063 C 585.34375 1065.847656 580.757812 1068.683594 576.15625 1071.867188 L 572.710938 1074.328125 L 569.160156 1077.261719 L 563.292969 1082.757812 L 551.644531 1093.820312 L 528.371094 1115.941406 L 481.964844 1160.335938 L 458.777344 1182.535156 L 447.167969 1193.632812 C 446.113281 1194.644531 444.996094 1195.601562 443.839844 1196.457031 C 441.347656 1198.324219 438.625 1199.824219 435.683594 1200.894531 C 427.140625 1204.125 417.28125 1203.699219 408.875 1199.882812 C 407.800781 1199.453125 406.808594 1198.886719 405.816406 1198.324219 C 404.78125 1197.796875 403.84375 1197.113281 402.890625 1196.457031 C 401.898438 1195.847656 401.046875 1195.078125 400.152344 1194.332031 C 399.296875 1193.660156 398.304688 1192.730469 397.3125 1191.8125 L 385.503906 1180.941406 L 361.886719 1159.191406 L 350.078125 1148.3125 C 345.898438 1144.515625 342.671875 1141.535156 340.113281 1137.621094 C 334.878906 1129.972656 333.03125 1120.171875 334.824219 1111.1875 C 335.71875 1106.675781 337.5 1102.378906 340.101562 1098.609375 C 340.8125 1097.714844 341.378906 1096.722656 342.171875 1095.894531 C 342.960938 1095.085938 343.714844 1094.210938 344.527344 1093.398438 L 347.140625 1091.167969 C 348.09375 1090.402344 349.253906 1089.570312 350.289062 1088.757812 L 368.589844 1074.835938 L 510.296875 966.9375 L 554.652344 933.152344 L 605.683594 894.175781 L 631.1875 874.65625 L 634.375 872.214844 L 635.957031 871.003906 L 637.460938 869.949219 C 638.410156 869.238281 639.445312 868.628906 640.5 868.039062 C 641.515625 867.410156 642.632812 866.984375 643.710938 866.460938 C 648.113281 864.511719 652.9375 863.601562 657.75 863.558594 C 662.578125 863.558594 667.445312 864.414062 671.949219 866.257812 C 674.179688 867.1875 676.375 868.265625 678.402344 869.605469 C 679.4375 870.25 680.449219 870.941406 681.386719 871.734375 L 682.828125 872.871094 L 684.351562 874.171875 L 696.523438 884.644531 L 702.613281 889.875 L 705.65625 892.492188 C 706.625 893.351562 707.4375 894.203125 708.351562 895.050781 C 715.253906 902.011719 719.414062 911.648438 719.511719 921.503906 L 719.511719 922.164062 C 719.511719 931.78125 715.574219 941.332031 708.621094 948.066406 Z M 713.476562 890.042969 C 712.445312 889.042969 711.386719 887.945312 710.375 887.042969 L 707.367188 884.386719 L 701.339844 879.085938 L 689.289062 868.460938 L 687.785156 867.140625 L 686.097656 865.761719 C 685 864.8125 683.804688 863.980469 682.570312 863.183594 C 680.15625 861.539062 677.535156 860.21875 674.855469 859.0625 C 669.480469 856.792969 663.613281 855.652344 657.753906 855.597656 C 651.890625 855.554688 645.96875 856.609375 640.527344 858.925781 C 639.1875 859.53125 637.808594 860.0625 636.527344 860.832031 C 635.230469 861.523438 633.949219 862.25 632.753906 863.125 L 630.949219 864.363281 L 629.328125 865.578125 L 626.117188 867.972656 L 600.367188 887.167969 L 548.953125 925.628906 L 505.613281 958.164062 L 353.328125 1072.410156 L 343.503906 1079.773438 C 342.40625 1080.605469 341.394531 1081.332031 340.261719 1082.253906 L 336.773438 1085.21875 C 335.695312 1086.289062 334.660156 1087.429688 333.625 1088.546875 C 332.570312 1089.6875 331.761719 1090.972656 330.828125 1092.199219 C 327.320312 1097.230469 324.90625 1102.992188 323.726562 1108.984375 C 321.316406 1120.933594 323.769531 1133.816406 330.585938 1143.921875 C 331.332031 1145.234375 332.390625 1146.359375 333.285156 1147.570312 C 334.179688 1148.816406 335.234375 1149.914062 336.289062 1150.980469 L 337.871094 1152.613281 C 338.414062 1153.148438 338.863281 1153.542969 339.375 1154.007812 L 342.316406 1156.75 L 354.097656 1167.636719 L 377.652344 1189.441406 L 389.441406 1200.355469 C 390.414062 1201.257812 391.347656 1202.148438 392.585938 1203.160156 C 393.738281 1204.132812 394.902344 1205.144531 396.179688 1205.957031 C 397.417969 1206.832031 398.675781 1207.726562 400.011719 1208.4375 C 401.332031 1209.179688 402.667969 1209.933594 404.066406 1210.507812 C 415.164062 1215.578125 428.25 1216.207031 439.800781 1211.90625 C 445.5625 1209.796875 450.917969 1206.382812 455.300781 1202.167969 L 466.929688 1191.105469 L 490.183594 1168.972656 L 536.710938 1124.699219 L 559.878906 1102.480469 L 571.464844 1091.367188 L 577.226562 1085.800781 L 579.820312 1083.589844 L 582.882812 1081.332031 C 591.246094 1075.328125 600.453125 1069.769531 609.445312 1064.105469 L 636.753906 1047.285156 C 645.863281 1041.664062 654.972656 1036.007812 663.964844 1030.097656 C 668.464844 1027.160156 672.957031 1024.191406 677.394531 1021.105469 C 679.625 1019.609375 681.839844 1017.980469 684.007812 1016.359375 L 685.652344 1015.164062 L 687.476562 1013.703125 C 688.691406 1012.703125 689.890625 1011.6875 691.050781 1010.675781 L 713.308594 951.960938 C 721.449219 944.109375 726.175781 932.8125 726.132812 921.464844 C 726.222656 909.890625 721.554688 898.363281 713.476562 890.042969 Z M 713.476562 890.042969 " fill-opacity="1" fill-rule="nonzero"/><path fill="#0cc0df" d="M 483.484375 936.886719 L 479.066406 956.695312 C 477.15625 965.265625 481.964844 973.898438 490.265625 976.757812 C 521.867188 987.667969 598.941406 1013.410156 660.902344 1027.230469 C 723.042969 1041.089844 807.023438 1052.835938 841.417969 1057.386719 C 850.28125 1058.5625 858.566406 1052.765625 860.511719 1044.039062 L 868.710938 1007.265625 C 870.84375 997.683594 864.574219 988.253906 854.910156 986.519531 L 503.359375 923.664062 C 494.265625 922.023438 485.496094 927.859375 483.484375 936.886719 Z M 483.484375 936.886719 " fill-opacity="1" fill-rule="nonzero"/><path fill="#0cc0df" d="M 484.40625 927.566406 L 479.988281 947.382812 C 478.078125 955.945312 482.890625 964.574219 491.1875 967.441406 C 522.789062 978.347656 599.867188 1004.097656 661.824219 1017.910156 C 723.964844 1031.777344 807.949219 1043.515625 842.339844 1048.074219 C 851.203125 1049.242188 859.488281 1043.453125 861.433594 1034.710938 L 869.636719 997.945312 C 871.765625 988.359375 865.496094 978.925781 855.832031 977.199219 L 504.285156 914.347656 C 495.1875 912.71875 486.421875 918.546875 484.40625 927.566406 Z M 484.40625 927.566406 " fill-opacity="1" fill-rule="nonzero"/><path fill="#2b2b2b" d="M 500.292969 926.421875 C 493.746094 926.421875 487.929688 930.9375 486.457031 937.542969 L 482.035156 957.351562 C 480.464844 964.417969 484.425781 971.515625 491.257812 973.871094 C 521.789062 984.410156 599.496094 1010.402344 661.566406 1024.253906 C 723.820312 1038.136719 808.359375 1049.933594 841.816406 1054.359375 C 849.15625 1055.324219 855.925781 1050.605469 857.539062 1043.367188 L 865.742188 1006.59375 C 866.59375 1002.78125 865.875 998.882812 863.699219 995.621094 C 861.53125 992.363281 858.21875 990.199219 854.363281 989.511719 L 502.816406 926.65625 C 501.976562 926.496094 501.128906 926.421875 500.292969 926.421875 Z M 843.753906 1060.574219 C 842.851562 1060.574219 841.933594 1060.519531 841.019531 1060.394531 C 807.480469 1055.960938 722.726562 1044.128906 660.238281 1030.1875 C 597.867188 1016.277344 519.894531 990.199219 489.273438 979.625 C 479.511719 976.257812 473.84375 966.113281 476.09375 956.015625 L 480.511719 936.207031 C 482.890625 925.558594 493.152344 918.722656 503.898438 920.636719 L 855.449219 983.492188 C 860.945312 984.472656 865.675781 987.582031 868.773438 992.230469 C 871.871094 996.886719 872.90625 1002.445312 871.691406 1007.898438 L 863.488281 1044.675781 C 861.378906 1054.136719 853.148438 1060.574219 843.753906 1060.574219 Z M 843.753906 1060.574219 " fill-opacity="1" fill-rule="nonzero"/><path fill="#0cc0df" d="M 899.699219 986.386719 C 891.929688 1018.96875 853.636719 1029.589844 810.722656 1030.601562 C 747.191406 1032.097656 673.5 1012.660156 673.5 1012.660156 C 673.5 1012.660156 598.507812 998.945312 541.675781 970.585938 C 519.089844 959.324219 499.347656 945.75 488.316406 929.796875 C 480.582031 918.617188 477.09375 906.277344 479.910156 892.75 C 492.816406 830.476562 591.042969 681.605469 636.472656 615.136719 C 650.414062 594.71875 659.378906 582.078125 659.378906 582.078125 L 762.839844 612.109375 L 869.285156 628.886719 C 869.285156 628.886719 919.015625 905.550781 899.699219 986.386719 Z M 899.699219 986.386719 " fill-opacity="1" fill-rule="nonzero"/><path fill="#0cc0df" d="M 687.644531 671.492188 C 687.644531 671.492188 671.128906 685.199219 656.761719 708.667969 C 642.414062 732.144531 582.238281 785.953125 559.167969 796.222656 C 536.117188 806.488281 485.351562 902.867188 489.636719 923.378906 C 490.246094 926.28125 489.699219 928.351562 488.316406 929.789062 C 480.582031 918.609375 477.09375 906.269531 479.910156 892.742188 C 492.816406 830.46875 591.042969 681.597656 636.472656 615.128906 Z M 687.644531 671.492188 " fill-opacity="1" fill-rule="nonzero"/><path fill="#2b2b2b" d="M 893.097656 984.8125 C 895.980469 971.082031 896.902344 956.273438 897.398438 941.550781 C 897.824219 926.777344 897.558594 911.890625 896.980469 897 C 895.726562 867.203125 893.246094 837.375 890.230469 807.589844 C 887.167969 777.808594 883.554688 748.058594 879.535156 718.367188 C 875.523438 688.671875 871.132812 658.992188 866.285156 629.441406 L 868.816406 631.90625 L 762.378906 615.128906 L 762.1875 615.101562 L 762.007812 615.042969 L 658.546875 585 L 661.875 583.839844 L 661.867188 583.839844 C 633.089844 625.21875 605.226562 667.300781 578.414062 709.976562 C 565.046875 731.339844 551.960938 752.875 539.394531 774.6875 C 526.921875 796.539062 514.734375 818.582031 504.058594 841.242188 C 498.71875 852.554688 493.648438 864.011719 489.609375 875.695312 C 488.53125 878.597656 487.742188 881.554688 486.789062 884.484375 C 485.875 887.414062 485.308594 890.363281 484.546875 893.300781 C 483.476562 898.949219 483.414062 904.605469 484.574219 910.136719 C 487.078125 921.199219 494.273438 931.070312 503.054688 939.207031 C 511.882812 947.402344 522.160156 954.269531 532.964844 960.230469 C 543.757812 966.230469 555.113281 971.347656 566.613281 976.09375 C 578.171875 980.75 589.964844 984.863281 601.878906 988.664062 C 613.792969 992.460938 625.851562 995.832031 637.992188 998.910156 C 650.101562 1001.972656 662.40625 1004.769531 674.542969 1007.046875 L 674.730469 1007.089844 L 674.96875 1007.144531 C 684.664062 1009.570312 694.683594 1011.710938 704.621094 1013.652344 C 714.582031 1015.597656 724.585938 1017.339844 734.621094 1018.800781 C 754.671875 1021.800781 774.855469 1023.804688 794.980469 1024.265625 C 805.027344 1024.460938 815.074219 1024.351562 824.980469 1023.449219 C 834.878906 1022.582031 844.675781 1021.078125 854 1018.464844 C 863.28125 1015.808594 872.082031 1011.949219 879.164062 1006.390625 C 886.289062 1000.878906 890.964844 993.324219 893.097656 984.8125 Z M 906.304688 987.960938 C 903.507812 999.308594 896.582031 1009.949219 887.386719 1016.835938 C 878.253906 1023.855469 867.859375 1028.132812 857.476562 1031.019531 C 847.046875 1033.832031 836.5 1035.34375 826.015625 1036.175781 C 815.511719 1037.027344 805.054688 1037.046875 794.648438 1036.753906 C 773.828125 1036.097656 753.210938 1033.851562 732.808594 1030.617188 C 722.601562 1029.027344 712.445312 1027.183594 702.328125 1025.113281 C 692.1875 1023.03125 682.191406 1020.8125 672.054688 1018.175781 L 672.480469 1018.277344 C 659.839844 1015.78125 647.546875 1012.855469 635.214844 1009.625 C 622.910156 1006.398438 610.6875 1002.875 598.578125 998.894531 C 586.476562 994.917969 574.472656 990.609375 562.65625 985.722656 C 550.875 980.75 539.226562 975.375 528.007812 969.011719 C 516.792969 962.679688 505.953125 955.367188 496.347656 946.296875 C 491.613281 941.695312 487.050781 936.78125 483.433594 931.007812 C 479.8125 925.292969 476.742188 918.996094 475.359375 912.117188 C 473.953125 905.269531 474.113281 898.117188 475.484375 891.378906 C 476.324219 888.21875 477.003906 884.96875 477.988281 881.882812 C 479.007812 878.816406 479.890625 875.675781 481.03125 872.675781 C 485.359375 860.539062 490.621094 848.917969 496.152344 837.464844 C 507.199219 814.554688 519.65625 792.488281 532.398438 770.621094 C 545.21875 748.800781 558.546875 727.316406 572.136719 706.003906 C 599.410156 663.433594 627.664062 621.566406 656.894531 580.308594 L 656.902344 580.304688 L 658.152344 578.535156 L 660.238281 579.136719 L 763.699219 609.179688 L 763.328125 609.09375 L 869.765625 625.875 L 871.898438 626.210938 L 872.285156 628.34375 C 877.828125 657.894531 882.890625 687.484375 887.601562 717.164062 C 892.308594 746.835938 896.617188 776.585938 900.382812 806.425781 C 904.097656 836.269531 907.277344 866.214844 909.242188 896.351562 C 910.164062 911.421875 910.789062 926.554688 910.703125 941.773438 C 910.570312 957.023438 909.890625 972.355469 906.304688 987.960938 Z M 906.304688 987.960938 " fill-opacity="1" fill-rule="nonzero"/><path fill="#0cc0df" d="M 823.945312 709.816406 C 823.945312 709.816406 828.246094 840.957031 899.320312 873.046875 L 899.335938 873.046875 C 893.945312 807.480469 883.324219 734.578125 875.898438 687.992188 C 856.875 695 823.945312 709.816406 823.945312 709.816406 Z M 823.945312 709.816406 " fill-opacity="1" fill-rule="nonzero"/><path fill="#2b2b2b" d="M 827.085938 711.746094 C 828.007812 727.929688 836.363281 835.84375 895.847656 867.9375 C 890.539062 806.152344 880.917969 739.191406 873.472656 692.160156 C 857.28125 698.355469 833.851562 708.722656 827.085938 711.746094 Z M 902.71875 877.03125 L 898.0625 875.824219 C 826.089844 843.324219 821.078125 715.351562 820.898438 709.917969 L 820.828125 707.878906 L 822.6875 707.039062 C 823.015625 706.890625 855.929688 692.097656 874.835938 685.132812 L 878.3125 683.855469 L 878.890625 687.511719 C 886.644531 736.125 897.015625 807.730469 902.363281 872.796875 Z M 902.71875 877.03125 " fill-opacity="1" fill-rule="nonzero"/><path fill="#0cc0df" d="M 670.011719 665.347656 C 670.011719 665.347656 610.386719 782.226562 532.417969 781.074219 L 532.398438 781.066406 C 565.144531 724.007812 605.738281 662.523438 632.257812 623.519531 C 646.5 637.941406 670.011719 665.347656 670.011719 665.347656 Z M 670.011719 665.347656 " fill-opacity="1" fill-rule="nonzero"/><path fill="#2b2b2b" d="M 632.675781 628.3125 C 605.949219 667.734375 568.78125 724.257812 537.722656 777.917969 C 605.207031 774.152344 658.636719 680.015625 666.347656 665.753906 C 661.496094 660.148438 644.703125 640.808594 632.675781 628.3125 Z M 533.578125 784.121094 C 533.171875 784.121094 532.773438 784.121094 532.367188 784.113281 L 531.816406 784.058594 L 527.671875 783.226562 L 529.753906 779.554688 C 562.242188 722.945312 602.054688 662.53125 629.734375 621.8125 L 631.816406 618.75 L 634.417969 621.386719 C 648.574219 635.71875 672.082031 663.097656 672.320312 663.371094 L 673.648438 664.914062 L 672.71875 666.734375 C 670.261719 671.542969 611.925781 784.121094 533.578125 784.121094 Z M 533.578125 784.121094 " fill-opacity="1" fill-rule="nonzero"/><path fill="#0cc0df" d="M 844.960938 877.082031 L 810.730469 1030.59375 C 747.199219 1032.089844 673.507812 1012.652344 673.507812 1012.652344 C 673.507812 1012.652344 611.925781 1001.390625 558.097656 978.1875 C 552.519531 975.773438 547.015625 973.234375 541.679688 970.578125 L 575.914062 817.058594 C 579.121094 802.691406 593.363281 793.664062 607.6875 796.867188 L 638.527344 803.746094 L 824.769531 845.296875 C 839.136719 848.492188 848.164062 862.714844 844.960938 877.082031 Z M 844.960938 877.082031 " fill-opacity="1" fill-rule="nonzero"/><path fill="#0cc0df" d="M 650.394531 810.304688 C 650.394531 810.304688 600.097656 800.628906 591.691406 820.183594 C 584.652344 836.578125 564.480469 943.773438 558.089844 978.1875 C 552.511719 975.773438 547.007812 973.234375 541.675781 970.578125 L 575.90625 817.058594 C 579.113281 802.691406 593.355469 793.664062 607.683594 796.867188 L 638.523438 803.746094 Z M 650.394531 810.304688 " fill-opacity="1" fill-rule="nonzero"/><path fill="#2b2b2b" d="M 841.234375 876.242188 C 842.058594 872.195312 841.957031 867.929688 840.570312 864.019531 C 839.296875 860.085938 836.824219 856.566406 833.707031 853.882812 C 832.125 852.546875 830.355469 851.464844 828.496094 850.570312 C 827.539062 850.199219 826.59375 849.75 825.59375 849.492188 L 824.097656 849.074219 L 822.359375 848.675781 L 808.226562 845.519531 L 751.703125 832.914062 L 638.648438 807.695312 L 610.386719 801.390625 L 606.855469 800.601562 C 605.828125 800.472656 604.824219 800.167969 603.789062 800.160156 C 601.726562 799.914062 599.65625 800.152344 597.621094 800.46875 C 595.59375 800.878906 593.628906 801.542969 591.761719 802.445312 C 589.945312 803.425781 588.160156 804.507812 586.652344 805.933594 C 585.132812 807.332031 583.734375 808.886719 582.667969 810.652344 C 581.527344 812.382812 580.695312 814.289062 580.09375 816.269531 L 579.671875 817.765625 L 579.273438 819.503906 L 578.484375 823.035156 L 576.914062 830.105469 L 570.585938 858.363281 L 557.699219 914.828125 L 551.246094 943.058594 L 544.632812 971.257812 L 543.015625 967.875 L 543.023438 967.875 C 553.316406 972.878906 563.824219 977.488281 574.554688 981.582031 C 585.300781 985.632812 596.152344 989.441406 607.15625 992.796875 C 618.15625 996.183594 629.238281 999.300781 640.394531 1002.125 C 651.546875 1004.929688 662.816406 1007.523438 674.039062 1009.691406 L 674.15625 1009.703125 L 674.269531 1009.738281 C 685.34375 1012.550781 696.648438 1014.988281 707.933594 1017.183594 C 719.238281 1019.378906 730.59375 1021.269531 741.988281 1022.875 C 753.378906 1024.511719 764.824219 1025.671875 776.269531 1026.574219 C 787.722656 1027.425781 799.195312 1027.722656 810.640625 1027.566406 L 807.738281 1029.945312 L 815.988281 991.496094 L 824.398438 953.085938 Z M 848.695312 877.90625 L 831.277344 954.597656 L 822.566406 992.945312 L 813.695312 1031.25 L 813.144531 1033.628906 L 810.792969 1033.628906 C 799.109375 1033.789062 787.449219 1033.480469 775.835938 1032.621094 C 764.230469 1031.714844 752.660156 1030.539062 741.15625 1028.882812 C 729.648438 1027.253906 718.191406 1025.335938 706.789062 1023.140625 C 695.378906 1020.917969 684.066406 1018.476562 672.722656 1015.597656 L 672.957031 1015.652344 C 661.46875 1013.4375 650.191406 1010.835938 638.921875 1007.996094 C 627.664062 1005.152344 616.476562 1002.011719 605.367188 998.59375 C 594.25 995.195312 583.273438 991.359375 572.382812 987.246094 C 561.503906 983.09375 550.820312 978.402344 540.3125 973.300781 L 540.304688 973.300781 L 538.179688 972.320312 L 538.6875 969.914062 L 544.679688 941.578125 L 550.832031 913.285156 L 563.167969 856.695312 L 569.453125 828.425781 L 571.023438 821.359375 L 571.816406 817.828125 L 572.222656 816.039062 L 572.765625 814.046875 C 573.5625 811.410156 574.6875 808.855469 576.207031 806.542969 C 577.644531 804.179688 579.5 802.097656 581.535156 800.242188 C 583.554688 798.355469 585.917969 796.878906 588.34375 795.601562 C 590.824219 794.390625 593.453125 793.503906 596.167969 792.957031 C 598.878906 792.511719 601.664062 792.238281 604.410156 792.546875 C 605.792969 792.582031 607.136719 792.945312 608.5 793.140625 L 612.039062 793.929688 L 640.296875 800.238281 L 753.351562 825.457031 L 809.878906 838.0625 L 824.007812 841.214844 L 825.796875 841.621094 L 827.789062 842.164062 C 829.117188 842.523438 830.390625 843.09375 831.664062 843.613281 C 834.160156 844.792969 836.523438 846.261719 838.632812 848.046875 C 842.816406 851.632812 846.085938 856.324219 847.800781 861.574219 C 849.644531 866.796875 849.820312 872.523438 848.695312 877.90625 Z M 848.695312 877.90625 " fill-opacity="1" fill-rule="nonzero"/><path fill="#2b2b2b" d="M 523.671875 1125.28125 C 494.472656 1039.773438 429.542969 1029.621094 426.796875 1029.238281 L 428.445312 1017.253906 C 431.496094 1017.675781 503.410156 1028.519531 535.117188 1121.375 Z M 523.671875 1125.28125 " fill-opacity="1" fill-rule="nonzero"/><path fill="#2b2b2b" d="M 741.683594 1152.6875 L 733.089844 1144.171875 C 735.25 1141.992188 787.085938 1090.960938 880.386719 1121.316406 L 876.640625 1132.816406 C 790.726562 1104.871094 743.640625 1150.714844 741.683594 1152.6875 Z M 741.683594 1152.6875 " fill-opacity="1" fill-rule="nonzero"/><path fill="#0cc0df" d="M 454.519531 1204.441406 C 433.375 1227.332031 399.632812 1215.457031 365.5625 1184.03125 C 361.203125 1179.992188 357.019531 1175.835938 353.167969 1171.585938 C 335.4375 1152.289062 323.320312 1131.414062 322.8125 1113.757812 C 322.546875 1105.070312 325.105469 1097.160156 331.171875 1090.582031 C 342.738281 1078.039062 361.363281 1074.453125 381.449219 1078.898438 C 398.089844 1082.589844 415.679688 1091.796875 431.097656 1106.039062 C 435.621094 1110.222656 439.714844 1114.605469 443.394531 1119.15625 C 467.394531 1148.820312 472.835938 1184.597656 454.519531 1204.441406 Z M 454.519531 1204.441406 " fill-opacity="1" fill-rule="nonzero"/><path fill="#f6f4f1" d="M 381.449219 1078.90625 C 379.15625 1079.429688 336.019531 1089.511719 322.8125 1113.757812 C 322.546875 1105.070312 325.105469 1097.160156 331.171875 1090.582031 C 342.738281 1078.054688 361.363281 1074.460938 381.449219 1078.90625 Z M 381.449219 1078.90625 " fill-opacity="1" fill-rule="nonzero"/><path fill="#0cc0df" d="M 454.519531 1204.441406 C 433.375 1227.332031 399.632812 1215.457031 365.5625 1184.03125 C 361.203125 1179.992188 357.019531 1175.835938 353.167969 1171.585938 C 371.144531 1181.933594 391.257812 1183.996094 402.863281 1187.464844 C 437.457031 1197.796875 443.402344 1119.15625 443.402344 1119.15625 C 467.394531 1148.820312 472.835938 1184.597656 454.519531 1204.441406 Z M 454.519531 1204.441406 " fill-opacity="1" fill-rule="nonzero"/><path fill="#2b2b2b" d="M 450.160156 1200.425781 C 455.453125 1194.894531 458.769531 1187.476562 459.71875 1179.417969 C 460.753906 1171.363281 459.699219 1162.867188 457.40625 1154.6875 C 452.714844 1138.25 442.980469 1123.058594 430.59375 1110.695312 C 418.238281 1098.28125 403.03125 1088.332031 386.253906 1083.351562 C 377.898438 1080.863281 369.136719 1079.640625 360.601562 1080.386719 C 352.085938 1081.09375 343.792969 1083.960938 337.375 1089.234375 C 334.1875 1091.898438 331.464844 1095.042969 329.578125 1098.574219 C 327.636719 1102.097656 326.734375 1106.097656 326.472656 1110.136719 C 326.046875 1118.3125 328.601562 1126.6875 332.257812 1134.433594 C 335.953125 1142.230469 340.855469 1149.542969 346.316406 1156.40625 C 351.8125 1163.257812 357.851562 1169.71875 364.292969 1175.753906 C 370.722656 1181.808594 377.503906 1187.476562 384.574219 1192.589844 C 391.648438 1197.679688 399.09375 1202.195312 406.863281 1205.425781 C 414.609375 1208.621094 422.714844 1210.464844 430.292969 1209.984375 C 437.84375 1209.390625 444.695312 1206.0625 450.160156 1200.425781 Z M 458.859375 1208.460938 L 456.082031 1211.164062 C 455.140625 1212.0625 454.273438 1213.011719 453.15625 1213.746094 C 451.027344 1215.296875 448.945312 1216.917969 446.5 1218.023438 C 445.296875 1218.589844 444.171875 1219.339844 442.890625 1219.738281 L 439.101562 1221.015625 C 437.84375 1221.5 436.523438 1221.605469 435.222656 1221.871094 C 433.921875 1222.058594 432.605469 1222.386719 431.304688 1222.4375 C 420.777344 1223.175781 410.875 1220.359375 402.117188 1216.410156 C 393.300781 1212.417969 385.363281 1207.214844 377.945312 1201.546875 C 370.550781 1195.824219 363.59375 1189.695312 357.152344 1183.058594 C 344.28125 1169.832031 332.59375 1155.09375 324.886719 1137.789062 C 321.1875 1129.148438 318.488281 1119.597656 319.320312 1109.632812 C 319.785156 1104.699219 321.160156 1099.734375 323.636719 1095.351562 C 326.105469 1090.953125 329.496094 1087.226562 333.296875 1084.183594 C 341.042969 1078.117188 350.628906 1074.949219 360.082031 1074.234375 C 369.585938 1073.515625 379.023438 1074.878906 387.984375 1077.453125 C 405.925781 1082.765625 422.105469 1092.769531 435.738281 1105.375 C 442.570312 1111.695312 448.664062 1118.820312 453.988281 1126.554688 C 459.285156 1134.292969 463.664062 1142.761719 466.710938 1151.820312 C 469.746094 1160.867188 471.339844 1170.636719 470.480469 1180.585938 C 469.703125 1190.476562 465.835938 1200.636719 458.859375 1208.460938 Z M 458.859375 1208.460938 " fill-opacity="1" fill-rule="nonzero"/><path fill="#0cc0df" d="M 925.839844 1254.960938 C 916.003906 1271.578125 892 1282.921875 860.386719 1288.730469 C 814.792969 1297.105469 770.640625 1290.8125 765 1260.183594 C 761.082031 1238.914062 775.464844 1217.1875 799.878906 1203.082031 C 799.902344 1203.0625 799.902344 1203.0625 799.902344 1203.0625 C 810.675781 1196.839844 823.398438 1192.085938 837.355469 1189.535156 C 882.945312 1181.152344 924.457031 1199.195312 930.078125 1229.828125 C 931.804688 1239.214844 930.222656 1247.621094 925.839844 1254.960938 Z M 925.839844 1254.960938 " fill-opacity="1" fill-rule="nonzero"/><path fill="#0cc0df" d="M 925.839844 1254.960938 C 916.003906 1271.578125 892 1282.921875 860.386719 1288.730469 C 814.792969 1297.105469 770.640625 1290.8125 765 1260.183594 C 761.082031 1238.914062 775.464844 1217.1875 799.878906 1203.082031 C 799.453125 1204.34375 781.457031 1257.261719 843.296875 1264.992188 C 879.675781 1269.53125 908.261719 1262.042969 925.839844 1254.960938 Z M 925.839844 1254.960938 " fill-opacity="1" fill-rule="nonzero"/><path fill="#2b2b2b" d="M 926.113281 1230.558594 C 924.769531 1222.574219 920.5625 1215.109375 914.4375 1209.304688 C 908.367188 1203.445312 900.734375 1199.054688 892.59375 1196.058594 C 876.207031 1189.996094 857.953125 1189.273438 840.667969 1192.273438 C 823.371094 1195.289062 806.480469 1201.832031 792.785156 1212.480469 C 785.972656 1217.78125 779.960938 1224.070312 775.640625 1231.238281 C 771.3125 1238.371094 768.886719 1246.445312 769.285156 1254.34375 C 769.53125 1258.304688 770.402344 1262.140625 772.011719 1265.519531 C 773.597656 1268.921875 776.058594 1271.839844 778.976562 1274.335938 C 784.890625 1279.320312 792.839844 1282.3125 801.070312 1284.046875 C 809.347656 1285.785156 818.023438 1286.394531 826.71875 1286.277344 C 835.425781 1286.121094 844.183594 1285.375 852.882812 1284.058594 C 870.222656 1281.359375 887.652344 1277.375 902.738281 1269.34375 C 910.199219 1265.308594 916.976562 1260.101562 921.457031 1253.449219 C 925.894531 1246.800781 927.386719 1238.683594 926.113281 1230.558594 Z M 934.054688 1229.105469 L 934.542969 1232.796875 C 934.691406 1234.035156 934.9375 1235.257812 934.851562 1236.53125 C 934.832031 1239.042969 934.878906 1241.570312 934.320312 1244.074219 C 933.664062 1249.136719 931.558594 1253.898438 929.0625 1258.269531 C 923.664062 1266.832031 915.910156 1273.230469 907.730469 1278.109375 C 899.503906 1283.019531 890.699219 1286.5 881.792969 1289.304688 C 872.871094 1292.085938 863.8125 1294.183594 854.652344 1295.601562 C 836.347656 1298.390625 817.4375 1299.246094 798.613281 1295.113281 C 793.929688 1294.015625 789.265625 1292.554688 784.742188 1290.527344 C 780.242188 1288.472656 775.800781 1285.917969 771.949219 1282.429688 C 768.117188 1278.957031 764.769531 1274.671875 762.683594 1269.796875 C 760.558594 1264.925781 759.609375 1259.75 759.484375 1254.695312 C 759.308594 1244.453125 762.78125 1234.617188 768.101562 1226.527344 C 773.429688 1218.382812 780.402344 1211.664062 788.035156 1206.140625 C 803.417969 1195.183594 821.324219 1188.605469 839.632812 1185.835938 C 857.945312 1183.136719 876.941406 1184.085938 894.726562 1190.105469 C 903.566406 1193.175781 912.128906 1197.625 919.324219 1204.089844 C 926.539062 1210.445312 932.082031 1219.277344 934.054688 1229.105469 Z M 934.054688 1229.105469 " fill-opacity="1" fill-rule="nonzero"/><path fill="#2b2b2b" d="M 993.226562 785.464844 C 939.90625 755.121094 960.566406 685.839844 960.785156 685.148438 L 968.472656 687.519531 C 967.675781 690.113281 949.535156 751.335938 997.210938 778.472656 Z M 993.226562 785.464844 " fill-opacity="1" fill-rule="nonzero"/><path fill="#2b2b2b" d="M 494.707031 668.03125 L 493.710938 660.042969 C 540.242188 654.273438 562.640625 592.679688 562.859375 592.0625 L 570.445312 594.753906 C 569.480469 597.480469 546.191406 661.648438 494.707031 668.03125 Z M 494.707031 668.03125 " fill-opacity="1" fill-rule="nonzero"/><path fill="#0cc0df" d="M 650.398438 860.421875 C 650.398438 876.632812 637.269531 889.777344 621.0625 889.777344 C 618.121094 889.777344 615.28125 889.351562 612.605469 888.539062 C 600.507812 884.910156 591.707031 873.683594 591.707031 860.414062 C 591.707031 845.660156 602.585938 833.488281 616.742188 831.398438 C 618.140625 831.175781 619.601562 831.078125 621.0625 831.078125 C 637.269531 831.078125 650.398438 844.207031 650.398438 860.421875 Z M 650.398438 860.421875 " fill-opacity="1" fill-rule="nonzero"/><path fill="#0cc0df" d="M 650.398438 860.421875 C 650.398438 876.632812 637.269531 889.777344 621.0625 889.777344 C 618.121094 889.777344 615.28125 889.351562 612.605469 888.539062 C 634.71875 867.941406 622.992188 841.871094 616.742188 831.398438 C 618.140625 831.175781 619.601562 831.078125 621.0625 831.078125 C 637.269531 831.078125 650.398438 844.207031 650.398438 860.421875 Z M 650.398438 860.421875 " fill-opacity="1" fill-rule="nonzero"/><path fill="#2b2b2b" d="M 621.058594 834.117188 C 606.550781 834.117188 594.753906 845.917969 594.753906 860.421875 C 594.753906 874.921875 606.554688 886.722656 621.058594 886.722656 C 635.5625 886.722656 647.359375 874.921875 647.359375 860.421875 C 647.359375 845.914062 635.558594 834.117188 621.058594 834.117188 Z M 621.058594 892.8125 C 603.191406 892.8125 588.664062 878.285156 588.664062 860.421875 C 588.664062 842.554688 603.191406 828.027344 621.058594 828.027344 C 638.921875 828.027344 653.449219 842.558594 653.449219 860.421875 C 653.449219 878.285156 638.914062 892.8125 621.058594 892.8125 Z M 621.058594 892.8125 " fill-opacity="1" fill-rule="nonzero"/><path fill="#0cc0df" d="M 530.363281 381.175781 L 555.6875 261.59375 L 569.59375 263.78125 L 553.722656 370.660156 Z M 530.363281 381.175781 " fill-opacity="1" fill-rule="nonzero"/><path fill="#2b2b2b" d="M 558.070312 265.046875 L 534.59375 375.941406 L 550.960938 368.570312 L 566.144531 266.320312 Z M 526.144531 386.414062 L 553.308594 258.132812 L 573.046875 261.242188 L 556.484375 372.75 Z M 526.144531 386.414062 " fill-opacity="1" fill-rule="nonzero"/><path fill="#0cc0df" d="M 552.957031 566.109375 C 552.957031 566.109375 549.660156 564.871094 544.742188 562.738281 C 534.691406 558.371094 517.980469 550.230469 509.375 541.242188 C 496.550781 527.832031 503.277344 420.699219 509.03125 401.925781 C 512.367188 390.984375 532.753906 378.917969 549.148438 370.773438 C 560.84375 364.960938 570.515625 361.136719 570.515625 361.136719 Z M 552.957031 566.109375 " fill-opacity="1" fill-rule="nonzero"/><path fill="#0cc0df" d="M 552.957031 566.109375 C 552.957031 566.109375 549.660156 564.871094 544.742188 562.738281 C 499.1875 509.074219 542.199219 378.636719 542.199219 378.636719 L 549.140625 370.765625 C 560.839844 364.957031 570.507812 361.132812 570.507812 361.132812 Z M 552.957031 566.109375 " fill-opacity="1" fill-rule="nonzero"/><path fill="#2b2b2b" d="M 571.632812 363.957031 C 561.640625 368.382812 551.671875 373.226562 542.199219 378.636719 C 537.453125 381.335938 532.84375 384.246094 528.433594 387.292969 C 524.070312 390.378906 519.867188 393.726562 516.644531 397.453125 C 515.078125 399.304688 513.800781 401.292969 513.253906 403.046875 C 512.605469 405.191406 512.148438 407.960938 511.722656 410.5625 C 510.910156 415.894531 510.332031 421.355469 509.828125 426.824219 C 508.773438 437.765625 508.074219 448.785156 507.617188 459.804688 C 507.136719 470.816406 506.878906 481.847656 507.015625 492.832031 C 507.191406 503.789062 507.535156 514.820312 509.046875 525.34375 C 509.246094 526.644531 509.421875 527.964844 509.703125 529.207031 L 510.085938 531.101562 L 510.5625 532.898438 C 510.703125 533.523438 510.898438 534.074219 511.09375 534.605469 C 511.296875 535.117188 511.441406 535.773438 511.6875 536.160156 C 511.910156 536.550781 512.105469 537.144531 512.324219 537.394531 C 512.429688 537.523438 512.519531 537.65625 512.605469 537.800781 L 512.722656 538.019531 L 513.050781 538.347656 C 516.433594 541.90625 520.769531 545.050781 525.230469 547.972656 C 534.234375 553.761719 544.109375 558.796875 554.023438 563.25 L 551.894531 568.957031 C 546.449219 567.195312 541.261719 565.132812 536.054688 562.878906 C 530.851562 560.648438 525.753906 558.140625 520.769531 555.257812 C 515.792969 552.359375 510.933594 549.121094 506.449219 544.8125 L 506.03125 544.421875 L 505.527344 543.808594 L 504.554688 542.542969 C 503.933594 541.683594 503.65625 540.949219 503.207031 540.128906 C 502.746094 539.3125 502.5625 538.589844 502.25 537.824219 C 501.949219 537.058594 501.675781 536.296875 501.488281 535.570312 L 500.851562 533.355469 L 500.355469 531.171875 C 499.996094 529.710938 499.773438 528.285156 499.507812 526.851562 C 498.53125 521.121094 498.074219 515.457031 497.703125 509.808594 C 497.339844 504.164062 497.171875 498.535156 497.144531 492.921875 C 497.054688 481.695312 497.339844 470.5 497.90625 459.328125 C 498.507812 448.15625 499.347656 437.003906 500.5625 425.851562 C 501.214844 420.273438 501.941406 414.699219 502.933594 409.074219 C 503.488281 406.214844 503.949219 403.488281 504.96875 400.332031 C 506.199219 396.808594 508.191406 394.167969 510.234375 391.824219 C 514.414062 387.238281 519.097656 383.777344 523.859375 380.5625 C 528.636719 377.378906 533.59375 374.589844 538.597656 371.984375 C 548.636719 366.789062 558.839844 362.230469 569.410156 358.265625 Z M 571.632812 363.957031 " fill-opacity="1" fill-rule="nonzero"/><path fill="#0cc0df" d="M 1094.457031 483.910156 L 1112.921875 363.074219 L 1099.132812 360.222656 L 1076.304688 465.835938 Z M 1094.457031 483.910156 " fill-opacity="1" fill-rule="nonzero"/><path fill="#2b2b2b" d="M 1079.632812 464.851562 L 1092.351562 477.519531 L 1109.472656 365.472656 L 1101.46875 363.816406 Z M 1096.558594 490.300781 L 1072.984375 466.816406 L 1096.796875 356.628906 L 1116.367188 360.675781 Z M 1096.558594 490.300781 " fill-opacity="1" fill-rule="nonzero"/><path fill="#0cc0df" d="M 1057.660156 641.101562 C 1050.679688 644.449219 1040.878906 646.378906 1031.832031 647.492188 C 1019.234375 649.039062 1008.101562 649.007812 1008.101562 649.007812 L 1063.953125 451 C 1063.953125 451 1073.542969 459.699219 1083.6875 471.011719 C 1095.371094 483.988281 1107.765625 500.375 1107.101562 510.847656 C 1105.867188 530.445312 1074.390625 633.074219 1057.660156 641.101562 Z M 1057.660156 641.101562 " fill-opacity="1" fill-rule="nonzero"/><path fill="#0cc0df" d="M 1031.832031 647.492188 C 1019.234375 649.035156 1008.101562 649.007812 1008.101562 649.007812 L 1063.953125 451 C 1063.953125 451 1073.542969 459.699219 1083.6875 471.011719 C 1082.847656 492.636719 1076.695312 587.007812 1031.832031 647.492188 Z M 1031.832031 647.492188 " fill-opacity="1" fill-rule="nonzero"/><path fill="#2b2b2b" d="M 1008.101562 652.058594 L 1008.117188 645.96875 C 1008.445312 645.96875 1040.460938 645.976562 1056.34375 638.355469 C 1070.601562 631.515625 1102.675781 532.558594 1104.070312 510.667969 C 1105.011719 495.816406 1073.949219 464.179688 1061.902344 453.246094 L 1065.984375 448.734375 C 1070.648438 452.957031 1111.445312 490.59375 1110.152344 511.050781 C 1108.949219 529.972656 1077.605469 634.914062 1058.988281 643.84375 C 1041.835938 652.070312 1009.472656 652.0625 1008.101562 652.058594 Z M 1008.101562 652.058594 " fill-opacity="1" fill-rule="nonzero"/><path fill="#0cc0df" d="M 1008.1875 648.800781 C 1005.894531 651.433594 1003.550781 653.992188 1001.097656 656.496094 C 995.707031 662.097656 989.9375 667.355469 983.84375 672.304688 C 970.867188 682.8125 956.421875 691.832031 940.5 699.265625 C 892.953125 721.433594 832.445312 729.203125 760.230469 718.9375 C 689.058594 703.089844 635.160156 674.488281 598.496094 636.96875 C 586.226562 624.40625 575.863281 610.863281 567.429688 596.460938 C 566.863281 595.507812 566.320312 594.542969 565.789062 593.585938 C 523.222656 518.023438 534.792969 419.503906 589.433594 315.28125 C 605.515625 284.636719 627.511719 261.375 653.273438 244.457031 C 709.382812 207.609375 783.296875 200.800781 852.367188 213.050781 C 909.445312 223.734375 965.035156 247.777344 1004.914062 286.582031 C 1035.320312 316.105469 1056.597656 354.21875 1062.414062 401.429688 C 1064.609375 419.175781 1065.875 436.4375 1066.265625 453.175781 C 1068.238281 533.558594 1049.394531 601.339844 1008.1875 648.800781 Z M 1008.1875 648.800781 " fill-opacity="1" fill-rule="nonzero"/><path fill="#f6f4f1" d="M 1004.921875 286.582031 C 974.375 267.570312 924.007812 244.128906 843.855469 230.019531 C 767.320312 216.554688 699.433594 229.640625 653.28125 244.457031 C 709.386719 207.609375 783.304688 200.800781 852.371094 213.050781 C 909.453125 223.742188 965.042969 247.785156 1004.921875 286.582031 Z M 1004.921875 286.582031 " fill-opacity="1" fill-rule="nonzero"/><path fill="#0cc0df" d="M 1001.097656 656.496094 C 995.707031 662.097656 989.9375 667.355469 983.84375 672.304688 C 970.867188 682.8125 956.421875 691.832031 940.5 699.265625 C 892.953125 721.433594 832.445312 729.203125 760.230469 718.9375 C 689.058594 703.089844 635.160156 674.488281 598.496094 636.96875 C 586.226562 624.40625 575.863281 610.863281 567.429688 596.460938 C 566.863281 595.507812 566.320312 594.542969 565.789062 593.585938 C 556.253906 553.53125 551.59375 478.449219 590.847656 403.144531 C 656.0625 278.015625 720.503906 257.054688 840.578125 278.925781 C 949.785156 298.816406 1046.421875 376.367188 1026.460938 548.261719 C 1021.519531 590.894531 1012.269531 626.726562 1001.097656 656.496094 Z M 1001.097656 656.496094 " fill-opacity="1" fill-rule="nonzero"/><path fill="#2b2b2b" d="M 1004.800781 645.863281 C 1023.386719 624.308594 1036.886719 598.664062 1045.863281 571.585938 C 1050.4375 558.050781 1053.695312 544.074219 1056.132812 529.964844 C 1058.554688 515.847656 1060.183594 501.5625 1060.832031 487.21875 C 1062.328125 458.53125 1060.824219 429.636719 1057.183594 401.09375 C 1053.5625 372.980469 1043.675781 345.765625 1027.964844 322.222656 C 1020.113281 310.457031 1010.933594 299.570312 1000.746094 289.683594 C 990.539062 279.828125 979.289062 271.015625 967.40625 263.160156 C 943.632812 247.398438 917.140625 235.800781 889.777344 227.398438 C 876.082031 223.210938 862.078125 219.882812 847.996094 217.441406 C 833.878906 215.078125 819.582031 213.511719 805.277344 212.839844 C 776.675781 211.566406 747.847656 213.847656 720.195312 220.859375 C 706.394531 224.390625 692.910156 229.109375 680.039062 235.117188 C 667.152344 241.101562 655.007812 248.574219 643.800781 257.230469 C 632.59375 265.890625 622.390625 275.855469 613.570312 286.949219 C 604.683594 298.046875 597.214844 310.050781 590.832031 322.945312 C 577.679688 348.59375 566.464844 375.261719 558.265625 402.816406 L 555.21875 413.15625 L 552.714844 423.628906 L 551.460938 428.867188 L 550.832031 431.480469 L 550.351562 434.125 L 548.433594 444.707031 C 548.128906 446.46875 547.777344 448.234375 547.5 450 L 546.863281 455.335938 L 545.582031 465.996094 C 545.207031 469.558594 545.136719 473.136719 544.890625 476.703125 L 544.589844 482.058594 L 544.4375 484.734375 L 544.464844 487.414062 C 544.609375 494.550781 544.386719 501.710938 545.207031 508.808594 C 545.539062 512.359375 545.703125 515.925781 546.136719 519.460938 C 546.6875 522.980469 547.210938 526.503906 547.707031 530.039062 C 547.988281 531.800781 548.164062 533.585938 548.519531 535.328125 L 549.652344 540.550781 C 550.429688 544.023438 551.105469 547.539062 551.964844 551 L 555.085938 561.242188 C 555.621094 562.941406 556.070312 564.683594 556.691406 566.363281 L 558.699219 571.332031 C 560.078125 574.625 561.339844 577.980469 562.839844 581.226562 L 567.84375 590.71875 C 568.695312 592.292969 569.5 593.894531 570.390625 595.445312 C 571.296875 596.984375 572.234375 598.515625 573.183594 600.035156 C 575.09375 603.0625 577.085938 606.039062 579.148438 608.960938 C 587.414062 620.660156 596.929688 631.46875 607.394531 641.261719 C 628.34375 660.886719 652.953125 676.417969 679.039062 688.519531 C 705.171875 700.628906 732.878906 709.191406 761.027344 715.527344 L 760.753906 715.476562 C 782.792969 718.46875 805.027344 720.09375 827.203125 719.601562 C 838.292969 719.433594 849.34375 718.539062 860.34375 717.304688 C 871.332031 715.96875 882.210938 713.980469 892.957031 711.445312 C 903.699219 708.914062 914.21875 705.535156 924.492188 701.585938 C 934.746094 697.609375 944.738281 692.945312 954.238281 687.433594 C 973.269531 676.464844 990.527344 662.476562 1004.800781 645.863281 Z M 1011.554688 651.734375 C 996.488281 669.03125 978.320312 683.535156 958.433594 694.769531 C 948.507812 700.433594 938.089844 705.199219 927.441406 709.242188 C 916.773438 713.261719 905.878906 716.667969 894.796875 719.199219 C 883.714844 721.726562 872.515625 723.691406 861.238281 724.980469 C 849.960938 726.167969 838.648438 727 827.320312 727.089844 C 804.675781 727.449219 782.09375 725.582031 759.75 722.460938 L 759.609375 722.441406 L 759.484375 722.414062 C 730.949219 715.875 702.816406 707.054688 676.199219 694.585938 C 649.632812 682.136719 624.484375 666.136719 603.027344 645.871094 C 592.300781 635.753906 582.554688 624.582031 574.085938 612.492188 C 571.96875 609.472656 569.933594 606.394531 567.976562 603.261719 C 567.003906 601.695312 566.046875 600.117188 565.117188 598.53125 C 564.203125 596.929688 563.375 595.273438 562.503906 593.648438 L 557.292969 583.875 C 555.742188 580.527344 554.300781 577.128906 552.792969 573.753906 L 550.527344 568.691406 C 549.804688 566.992188 549.253906 565.222656 548.609375 563.488281 L 544.882812 553.027344 C 543.820312 549.492188 542.941406 545.890625 541.953125 542.316406 L 540.515625 536.941406 C 540.050781 535.144531 539.828125 533.304688 539.480469 531.488281 C 538.820312 527.84375 538.191406 524.1875 537.589844 520.53125 C 537.082031 516.863281 536.871094 513.164062 536.523438 509.480469 C 535.65625 502.101562 535.851562 494.699219 535.683594 487.308594 L 535.648438 484.53125 L 535.792969 481.765625 L 536.089844 476.234375 C 536.324219 472.550781 536.390625 468.84375 536.765625 465.179688 L 538.054688 454.1875 L 538.695312 448.695312 C 538.976562 446.875 539.324219 445.066406 539.640625 443.246094 L 541.578125 432.363281 L 542.066406 429.640625 L 542.703125 426.957031 L 543.96875 421.582031 L 546.503906 410.835938 L 549.589844 400.242188 C 557.894531 372.023438 569.242188 344.820312 582.527344 318.699219 C 595.433594 292.160156 614.246094 267.828125 637.898438 249.644531 C 649.667969 240.5 662.417969 232.605469 675.882812 226.292969 C 689.34375 219.957031 703.402344 214.992188 717.757812 211.265625 C 746.511719 203.941406 776.285156 201.570312 805.738281 202.84375 C 820.476562 203.519531 835.136719 205.109375 849.703125 207.527344 C 864.273438 210.035156 878.617188 213.429688 892.726562 217.71875 C 920.910156 226.339844 948.277344 238.261719 973.046875 254.621094 C 985.414062 262.789062 997.167969 271.960938 1007.894531 282.289062 C 1018.582031 292.640625 1028.265625 304.085938 1036.574219 316.503906 C 1053.238281 341.324219 1063.609375 370.25 1067.347656 399.796875 C 1071.039062 428.929688 1072.339844 458.363281 1070.675781 487.753906 C 1069.941406 502.453125 1068.210938 517.113281 1065.628906 531.636719 C 1063.035156 546.148438 1059.601562 560.558594 1054.800781 574.5625 C 1045.339844 602.5625 1031.132812 629.273438 1011.554688 651.734375 Z M 1011.554688 651.734375 " fill-opacity="1" fill-rule="nonzero"/><path fill="#2b2b2b" d="M 1018.175781 569.445312 C 1008.507812 622.523438 980.019531 667.550781 940.515625 699.277344 C 892.964844 721.449219 832.460938 729.214844 760.246094 718.953125 C 689.050781 703.097656 635.171875 674.5 598.488281 636.984375 C 572.710938 593.371094 561.921875 541.183594 571.589844 488.105469 C 593.398438 368.375 711.039062 289.542969 834.363281 312.007812 C 957.679688 334.472656 1039.984375 449.714844 1018.175781 569.445312 Z M 1018.175781 569.445312 " fill-opacity="1" fill-rule="nonzero"/><path fill="#f6f4f1" d="M 602.640625 528.742188 C 595.503906 529.273438 602.886719 585.300781 636.976562 628.71875 C 675.449219 677.722656 743.050781 691.371094 745.511719 682.492188 C 749.09375 669.570312 699.964844 667.808594 655.734375 624.726562 C 618.121094 588.085938 610.519531 528.152344 602.640625 528.742188 Z M 602.640625 528.742188 " fill-opacity="1" fill-rule="nonzero"/><path fill="#f6f4f1" d="M 989.660156 493.910156 C 994.742188 492.910156 994.546875 471.996094 986.15625 450.433594 C 977.285156 427.601562 957.042969 411.253906 952.871094 413.898438 C 949.917969 415.761719 954.511719 422.152344 965.914062 445.128906 C 981.925781 477.386719 985.03125 494.816406 989.660156 493.910156 Z M 989.660156 493.910156 " fill-opacity="1" fill-rule="nonzero"/><path fill="#f6f4f1" d="M 943.597656 397.425781 C 940.195312 390.644531 928.355469 389.601562 926.335938 392.71875 C 925.257812 394.390625 927.007812 397.257812 927.761719 398.488281 C 931.546875 404.652344 940.65625 407.820312 943.585938 405.058594 C 945.351562 403.386719 944.722656 399.667969 943.597656 397.425781 Z M 943.597656 397.425781 " fill-opacity="1" fill-rule="nonzero"/></svg>