<svg xmlns="http://www.w3.org/2000/svg" xmlns:xlink="http://www.w3.org/1999/xlink" width="1280" zoomAndPan="magnify" viewBox="0 0 960 540.000001" height="720" preserveAspectRatio="xMidYMid meet" version="1.0"><defs><g/><clipPath id="09d8321f1e"><path d="M 0.886719 260 L 957 260 L 957 539 L 0.886719 539 Z M 0.886719 260 " clip-rule="nonzero"/></clipPath><clipPath id="b7000cc511"><rect x="0" width="957" y="0" height="279"/></clipPath><clipPath id="9526f09cb8"><path d="M 141.351562 218 L 175 218 L 175 252 L 141.351562 252 Z M 141.351562 218 " clip-rule="nonzero"/></clipPath><clipPath id="5eb31e28b5"><path d="M 238 243 L 277 243 L 277 268.667969 L 238 268.667969 Z M 238 243 " clip-rule="nonzero"/></clipPath></defs><g clip-path="url(#09d8321f1e)"><g transform="matrix(1, 0, 0, 1, 0.000000000000000222, 260)"><g clip-path="url(#b7000cc511)"><g fill="#ffffff" fill-opacity="1"><g transform="translate(3.538397, 204.005465)"><g><path d="M 168.8125 0 L 159.9375 -111.25 L 158.8125 -111.25 L 120.359375 -1.140625 L 94.875 -1.140625 L 56.421875 -111.25 L 55.28125 -111.25 L 46.40625 0 L 3.640625 0 L 20.46875 -187.703125 L 65.984375 -187.703125 L 107.609375 -79.40625 L 149.25 -187.703125 L 194.75 -187.703125 L 211.59375 0 Z M 168.8125 0 "/></g></g></g><g fill="#ffffff" fill-opacity="1"><g transform="translate(203.255922, 204.005465)"><g><path d="M 108.984375 -187.703125 L 184.75 0 L 138.78125 0 L 124.90625 -37.546875 L 53.46875 -37.546875 L 39.59375 0 L -6.375 0 L 69.390625 -187.703125 Z M 110.34375 -75.078125 L 89.40625 -129.6875 L 88.953125 -129.6875 L 68.03125 -75.078125 Z M 110.34375 -75.078125 "/></g></g></g><g fill="#ffffff" fill-opacity="1"><g transform="translate(366.122924, 204.005465)"><g><path d="M 1.8125 -150.15625 L 1.8125 -187.703125 L 133.78125 -187.703125 L 133.78125 -150.15625 L 89.1875 -150.15625 L 89.1875 0 L 46.40625 0 L 46.40625 -150.15625 Z M 1.8125 -150.15625 "/></g></g></g><g fill="#ffffff" fill-opacity="1"><g transform="translate(486.225105, 204.005465)"><g><path d="M 113.53125 -38.671875 C 120.050781 -38.671875 126.382812 -39.65625 132.53125 -41.625 C 138.675781 -43.601562 143.1875 -45.503906 146.0625 -47.328125 L 150.390625 -50.28125 L 168.59375 -13.875 C 167.976562 -13.425781 167.140625 -12.820312 166.078125 -12.0625 C 165.023438 -11.300781 162.5625 -9.894531 158.6875 -7.84375 C 154.820312 -5.800781 150.6875 -4.019531 146.28125 -2.5 C 141.882812 -0.988281 136.125 0.367188 129 1.578125 C 121.875 2.796875 114.519531 3.40625 106.9375 3.40625 C 89.488281 3.40625 72.953125 -0.875 57.328125 -9.4375 C 41.710938 -18.007812 29.125 -29.800781 19.5625 -44.8125 C 10.007812 -59.832031 5.234375 -76.066406 5.234375 -93.515625 C 5.234375 -106.703125 8.035156 -119.363281 13.640625 -131.5 C 19.253906 -143.632812 26.722656 -154.023438 36.046875 -162.671875 C 45.378906 -171.316406 56.265625 -178.21875 68.703125 -183.375 C 81.140625 -188.53125 93.882812 -191.109375 106.9375 -191.109375 C 119.070312 -191.109375 130.253906 -189.664062 140.484375 -186.78125 C 150.722656 -183.90625 157.96875 -181.023438 162.21875 -178.140625 L 168.59375 -173.828125 L 150.390625 -137.421875 C 149.328125 -138.328125 147.734375 -139.425781 145.609375 -140.71875 C 143.484375 -142.007812 139.234375 -143.710938 132.859375 -145.828125 C 126.492188 -147.953125 120.050781 -149.015625 113.53125 -149.015625 C 103.21875 -149.015625 93.960938 -147.347656 85.765625 -144.015625 C 77.578125 -140.679688 71.09375 -136.28125 66.3125 -130.8125 C 61.539062 -125.351562 57.898438 -119.476562 55.390625 -113.1875 C 52.890625 -106.894531 51.640625 -100.488281 51.640625 -93.96875 C 51.640625 -79.707031 56.984375 -66.925781 67.671875 -55.625 C 78.367188 -44.320312 93.65625 -38.671875 113.53125 -38.671875 Z M 113.53125 -38.671875 "/></g></g></g><g fill="#ffffff" fill-opacity="1"><g transform="translate(642.04046, 204.005465)"><g><path d="M 108.984375 -187.703125 L 184.75 0 L 138.78125 0 L 124.90625 -37.546875 L 53.46875 -37.546875 L 39.59375 0 L -6.375 0 L 69.390625 -187.703125 Z M 110.34375 -75.078125 L 89.40625 -129.6875 L 88.953125 -129.6875 L 68.03125 -75.078125 Z M 110.34375 -75.078125 "/></g></g></g><g fill="#ffffff" fill-opacity="1"><g transform="translate(804.907463, 204.005465)"><g><path d="M 13.65625 -187.703125 L 82.140625 -187.703125 C 101.242188 -187.703125 116.710938 -182.769531 128.546875 -172.90625 C 140.378906 -163.050781 146.296875 -148.71875 146.296875 -129.90625 C 146.296875 -111.101562 140.300781 -96.351562 128.3125 -85.65625 C 116.332031 -74.96875 100.941406 -69.625 82.140625 -69.625 L 56.421875 -69.625 L 56.421875 0 L 13.65625 0 Z M 56.421875 -103.75 L 68.484375 -103.75 C 78.035156 -103.75 85.882812 -105.679688 92.03125 -109.546875 C 98.175781 -113.410156 101.25 -119.742188 101.25 -128.546875 C 101.25 -137.492188 98.175781 -143.898438 92.03125 -147.765625 C 85.882812 -151.640625 78.035156 -153.578125 68.484375 -153.578125 L 56.421875 -153.578125 Z M 56.421875 -103.75 "/></g></g></g></g></g></g><path fill="#0cc0df" d="M 325.070312 140.058594 C 324.425781 141.890625 323.28125 143.652344 321.6875 145.1875 C 316.550781 150.136719 280.984375 156.566406 267.617188 158.835938 C 264.472656 159.371094 262.554688 159.675781 262.554688 159.675781 L 252.472656 145.371094 C 252.472656 145.371094 305.074219 123.386719 316.164062 126.339844 C 324.46875 128.550781 326.996094 134.597656 325.070312 140.058594 Z M 325.070312 140.058594 " fill-opacity="1" fill-rule="nonzero"/><path fill="#0cc0df" d="M 325.070312 140.058594 C 324.425781 141.890625 323.28125 143.652344 321.6875 145.1875 C 316.550781 150.136719 280.984375 156.566406 267.617188 158.835938 C 267.394531 155.1875 267.058594 150.972656 267.058594 150.972656 C 267.058594 150.972656 310.066406 145.65625 319.652344 140.949219 C 321.246094 140.171875 323.121094 139.910156 325.070312 140.058594 Z M 325.070312 140.058594 " fill-opacity="1" fill-rule="nonzero"/><path fill="#2b2b2b" d="M 253.117188 145.558594 C 256.539062 150.160156 259.851562 154.65625 263.097656 159.289062 L 262.449219 159.011719 C 268.625 157.359375 274.878906 156.222656 281.132812 155.066406 C 287.382812 153.890625 293.613281 152.644531 299.800781 151.226562 C 302.890625 150.515625 305.972656 149.761719 309.015625 148.921875 C 312.054688 148.078125 315.089844 147.164062 317.90625 145.960938 C 318.265625 145.820312 318.589844 145.644531 318.925781 145.480469 C 319.09375 145.398438 319.265625 145.320312 319.425781 145.234375 L 319.878906 144.960938 C 320.023438 144.867188 320.199219 144.78125 320.316406 144.683594 L 320.679688 144.398438 C 320.800781 144.320312 320.929688 144.179688 321.058594 144.050781 C 321.183594 143.917969 321.320312 143.792969 321.4375 143.65625 C 322.421875 142.578125 323.230469 141.355469 323.753906 140.027344 C 324.292969 138.707031 324.523438 137.289062 324.417969 135.910156 C 324.316406 134.523438 323.824219 133.203125 323.054688 132.046875 C 322.269531 130.898438 321.1875 129.929688 319.949219 129.171875 C 318.699219 128.421875 317.3125 127.863281 315.859375 127.464844 C 315.242188 127.296875 314.515625 127.230469 313.777344 127.222656 C 313.035156 127.214844 312.277344 127.242188 311.511719 127.316406 C 309.980469 127.449219 308.4375 127.703125 306.898438 127.992188 C 303.816406 128.582031 300.746094 129.359375 297.695312 130.203125 C 294.644531 131.050781 291.609375 131.980469 288.585938 132.949219 C 282.539062 134.894531 276.527344 136.976562 270.558594 139.167969 C 267.570312 140.261719 264.589844 141.382812 261.621094 142.523438 L 257.167969 144.238281 L 254.945312 145.109375 L 253.835938 145.550781 L 253.28125 145.769531 L 253.007812 145.882812 L 252.796875 145.964844 C 252.808594 145.960938 252.726562 145.996094 252.8125 145.957031 C 252.957031 145.886719 253.09375 145.703125 253.117188 145.558594 Z M 251.832031 145.1875 C 251.878906 145.03125 252.039062 144.839844 252.203125 144.761719 L 252.285156 144.726562 L 252.355469 144.695312 L 252.492188 144.636719 L 252.769531 144.519531 L 253.316406 144.285156 L 254.421875 143.820312 L 256.628906 142.894531 L 261.050781 141.074219 C 264.007812 139.882812 266.976562 138.707031 269.953125 137.558594 C 275.90625 135.265625 281.894531 133.046875 287.957031 131.019531 C 290.988281 130.015625 294.039062 129.042969 297.117188 128.15625 C 300.195312 127.269531 303.300781 126.445312 306.46875 125.804688 C 308.058594 125.488281 309.65625 125.207031 311.300781 125.046875 C 312.121094 124.960938 312.957031 124.917969 313.808594 124.917969 C 314.660156 124.921875 315.535156 124.976562 316.460938 125.210938 C 318.085938 125.640625 319.6875 126.257812 321.179688 127.132812 C 322.664062 128.019531 324.03125 129.195312 325.0625 130.671875 C 326.078125 132.148438 326.734375 133.90625 326.871094 135.707031 C 327.015625 137.503906 326.714844 139.3125 326.058594 140.941406 C 325.414062 142.582031 324.441406 144.058594 323.28125 145.339844 C 323.144531 145.503906 322.984375 145.652344 322.835938 145.804688 C 322.6875 145.960938 322.542969 146.113281 322.339844 146.269531 L 321.765625 146.726562 C 321.574219 146.875 321.386719 146.964844 321.195312 147.089844 L 320.625 147.433594 C 320.4375 147.535156 320.246094 147.625 320.058594 147.71875 C 319.679688 147.90625 319.296875 148.105469 318.917969 148.257812 C 315.871094 149.570312 312.792969 150.496094 309.699219 151.371094 C 306.605469 152.238281 303.5 153.007812 300.382812 153.738281 C 294.152344 155.1875 287.894531 156.464844 281.625 157.667969 C 275.355469 158.875 269.066406 159.957031 262.660156 160.335938 L 262.246094 160.402344 L 262.003906 160.0625 C 258.539062 155.15625 255.132812 150.117188 251.832031 145.1875 Z M 251.832031 145.1875 " fill-opacity="1" fill-rule="nonzero"/><path fill="#0cc0df" d="M 324.4375 145.105469 C 316.703125 153.203125 307.492188 148.632812 307.492188 148.632812 L 306.609375 147.847656 C 305.847656 147.164062 305.128906 146.453125 304.453125 145.714844 C 300.085938 140.910156 297.601562 134.925781 297.472656 128.742188 C 297.472656 128.742188 306.332031 121.058594 316.617188 121.964844 C 318.113281 122.09375 319.503906 122.503906 320.761719 123.136719 C 328.15625 126.847656 331.042969 138.1875 324.4375 145.105469 Z M 324.4375 145.105469 " fill-opacity="1" fill-rule="nonzero"/><path fill="#0cc0df" d="M 324.4375 145.105469 C 316.703125 153.203125 307.492188 148.632812 307.492188 148.632812 L 306.609375 147.847656 C 305.847656 147.164062 305.128906 146.453125 304.453125 145.714844 L 304.769531 145.050781 C 304.769531 145.050781 311.480469 146.511719 318.363281 142.597656 C 324.023438 139.378906 323.28125 129.28125 320.761719 123.136719 C 328.15625 126.847656 331.042969 138.1875 324.4375 145.105469 Z M 324.4375 145.105469 " fill-opacity="1" fill-rule="nonzero"/><path fill="#2b2b2b" d="M 297.910156 129.25 C 298.375 128.214844 298.039062 128.964844 298.144531 128.734375 L 298.144531 128.816406 L 298.148438 128.90625 L 298.160156 129.078125 L 298.175781 129.425781 C 298.1875 129.660156 298.191406 129.894531 298.214844 130.125 C 298.265625 130.585938 298.300781 131.050781 298.367188 131.511719 C 298.503906 132.433594 298.675781 133.347656 298.914062 134.25 C 299.382812 136.050781 300.054688 137.800781 300.910156 139.457031 C 301.765625 141.117188 302.800781 142.683594 303.980469 144.128906 C 304.570312 144.851562 305.199219 145.542969 305.859375 146.207031 C 306.523438 146.867188 307.214844 147.492188 307.9375 148.132812 L 307.789062 148.03125 C 308.394531 148.226562 309.085938 148.410156 309.753906 148.53125 C 310.425781 148.664062 311.105469 148.75 311.777344 148.808594 C 313.128906 148.914062 314.476562 148.84375 315.785156 148.613281 C 317.097656 148.402344 318.339844 147.917969 319.539062 147.363281 L 320.40625 146.867188 L 320.839844 146.621094 L 321.242188 146.324219 L 322.050781 145.726562 C 322.191406 145.636719 322.3125 145.523438 322.433594 145.402344 L 322.804688 145.058594 C 324.859375 143.308594 326.210938 140.929688 326.746094 138.328125 C 327.296875 135.734375 326.976562 132.960938 325.972656 130.480469 C 324.945312 128.023438 323.25 125.792969 320.980469 124.433594 C 319.855469 123.75 318.609375 123.257812 317.308594 123.042969 C 316.976562 123.007812 316.664062 122.933594 316.316406 122.925781 L 315.289062 122.875 L 314.777344 122.847656 C 314.605469 122.847656 314.433594 122.863281 314.261719 122.867188 L 313.226562 122.914062 C 307.722656 123.359375 302.34375 125.867188 297.910156 129.25 Z M 297.035156 128.238281 C 299.3125 126.292969 301.808594 124.742188 304.492188 123.476562 C 305.167969 123.171875 305.84375 122.863281 306.542969 122.613281 C 307.230469 122.328125 307.945312 122.117188 308.660156 121.894531 C 309.011719 121.773438 309.378906 121.695312 309.742188 121.605469 L 310.832031 121.347656 L 311.949219 121.175781 C 312.320312 121.128906 312.6875 121.046875 313.066406 121.035156 L 314.195312 120.960938 C 314.386719 120.953125 314.574219 120.929688 314.761719 120.929688 L 315.328125 120.945312 L 316.464844 120.980469 C 316.839844 120.980469 317.238281 121.058594 317.625 121.097656 C 319.175781 121.328125 320.675781 121.882812 322.03125 122.667969 C 323.386719 123.453125 324.589844 124.492188 325.585938 125.683594 C 326.589844 126.871094 327.40625 128.210938 327.996094 129.644531 C 329.171875 132.5 329.574219 135.707031 328.949219 138.773438 C 328.644531 140.304688 328.09375 141.792969 327.3125 143.152344 C 326.539062 144.511719 325.511719 145.753906 324.363281 146.75 L 323.941406 147.148438 C 323.804688 147.28125 323.660156 147.410156 323.503906 147.519531 L 322.574219 148.214844 L 322.105469 148.5625 L 321.601562 148.855469 L 320.589844 149.4375 C 320.238281 149.613281 319.875 149.753906 319.515625 149.910156 L 318.976562 150.132812 C 318.792969 150.203125 318.605469 150.25 318.417969 150.308594 C 318.042969 150.417969 317.667969 150.535156 317.292969 150.632812 L 316.140625 150.832031 C 314.597656 151.039062 313.03125 151.011719 311.519531 150.742188 C 310.765625 150.601562 310.023438 150.421875 309.304688 150.167969 C 308.574219 149.925781 307.898438 149.628906 307.191406 149.226562 L 307.09375 149.171875 L 307.042969 149.125 C 306.335938 148.496094 305.609375 147.839844 304.910156 147.148438 C 304.222656 146.453125 303.5625 145.730469 302.941406 144.972656 C 301.703125 143.453125 300.617188 141.808594 299.71875 140.066406 C 298.820312 138.324219 298.109375 136.480469 297.617188 134.582031 C 297.363281 133.628906 297.183594 132.664062 297.039062 131.691406 C 296.96875 131.207031 296.933594 130.714844 296.878906 130.226562 C 296.855469 129.984375 296.851562 129.738281 296.839844 129.492188 L 296.820312 129.121094 L 296.808594 128.9375 L 296.808594 128.847656 L 296.804688 128.800781 L 296.804688 128.761719 C 296.90625 128.53125 296.574219 129.277344 297.035156 128.238281 Z M 297.035156 128.238281 " fill-opacity="1" fill-rule="nonzero"/><path fill="#0cc0df" d="M 219.070312 135.660156 L 208.570312 142.113281 L 204.164062 144.824219 C 204.164062 144.824219 177.78125 128.167969 163.808594 116.6875 C 159.488281 113.140625 156.359375 110.085938 155.550781 108.167969 C 152.128906 100.039062 156.71875 91.359375 168.070312 93.023438 C 179.421875 94.691406 219.070312 135.660156 219.070312 135.660156 Z M 219.070312 135.660156 " fill-opacity="1" fill-rule="nonzero"/><path fill="#0cc0df" d="M 208.570312 142.113281 L 204.164062 144.824219 C 204.164062 144.824219 177.78125 128.167969 163.808594 116.6875 L 171.617188 115.246094 C 171.617188 115.246094 196.363281 134.128906 208.570312 142.113281 Z M 208.570312 142.113281 " fill-opacity="1" fill-rule="nonzero"/><path fill="#2b2b2b" d="M 219.734375 135.742188 C 214.753906 138.972656 209.640625 142.257812 204.515625 145.390625 L 204.160156 145.609375 L 203.808594 145.386719 C 198.378906 142.027344 193.027344 138.566406 187.703125 135.046875 C 182.382812 131.527344 177.117188 127.921875 171.945312 124.167969 C 169.363281 122.285156 166.800781 120.367188 164.292969 118.371094 C 161.785156 116.367188 159.3125 114.320312 157.03125 111.941406 C 156.742188 111.65625 156.476562 111.324219 156.199219 111.011719 C 156.0625 110.847656 155.921875 110.695312 155.789062 110.527344 L 155.402344 110 C 155.277344 109.816406 155.140625 109.664062 155.027344 109.453125 L 154.6875 108.828125 C 154.5625 108.609375 154.492188 108.414062 154.417969 108.214844 C 154.34375 108.015625 154.253906 107.824219 154.191406 107.617188 C 153.632812 106.003906 153.320312 104.28125 153.371094 102.542969 C 153.402344 100.804688 153.832031 99.046875 154.65625 97.472656 C 155.476562 95.890625 156.753906 94.546875 158.25 93.59375 C 159.757812 92.644531 161.457031 92.097656 163.160156 91.859375 C 164.871094 91.636719 166.578125 91.6875 168.238281 91.925781 C 169.175781 92.070312 170 92.355469 170.785156 92.683594 C 171.566406 93.011719 172.320312 93.375 173.042969 93.773438 C 174.492188 94.558594 175.855469 95.441406 177.195312 96.347656 C 182.527344 100.011719 187.417969 104.148438 192.207031 108.386719 C 196.988281 112.636719 201.652344 116.996094 206.191406 121.484375 C 208.460938 123.726562 210.734375 125.96875 212.949219 128.261719 L 216.273438 131.707031 L 217.921875 133.441406 L 218.738281 134.316406 L 219.347656 134.972656 L 219.449219 135.085938 L 219.5 135.140625 L 219.5625 135.207031 C 219.683594 135.339844 219.753906 135.582031 219.734375 135.742188 Z M 218.40625 135.578125 C 218.371094 135.722656 218.421875 135.941406 218.527344 136.0625 C 218.589844 136.128906 218.53125 136.066406 218.539062 136.074219 L 218.484375 136.023438 L 218.378906 135.917969 L 218.164062 135.710938 L 217.738281 135.292969 L 216.878906 134.464844 L 215.167969 132.800781 L 211.730469 129.492188 C 209.421875 127.300781 207.136719 125.085938 204.8125 122.914062 C 200.164062 118.574219 195.503906 114.246094 190.726562 110.066406 C 188.339844 107.976562 185.914062 105.929688 183.457031 103.929688 C 181.003906 101.933594 178.507812 99.992188 175.921875 98.214844 C 174.625 97.332031 173.3125 96.480469 171.964844 95.746094 C 171.292969 95.371094 170.609375 95.039062 169.925781 94.75 C 169.242188 94.460938 168.546875 94.230469 167.910156 94.128906 C 166.417969 93.910156 164.914062 93.867188 163.457031 94.050781 C 162.007812 94.25 160.617188 94.703125 159.417969 95.449219 C 158.230469 96.207031 157.234375 97.242188 156.582031 98.492188 C 155.925781 99.738281 155.5625 101.15625 155.535156 102.601562 C 155.484375 104.046875 155.746094 105.515625 156.222656 106.910156 C 156.273438 107.085938 156.351562 107.253906 156.417969 107.429688 C 156.480469 107.601562 156.546875 107.78125 156.628906 107.910156 L 156.855469 108.335938 C 156.929688 108.480469 157.058594 108.628906 157.152344 108.773438 L 157.464844 109.214844 C 157.578125 109.359375 157.707031 109.5 157.828125 109.644531 C 158.074219 109.929688 158.300781 110.226562 158.578125 110.5 C 160.6875 112.746094 163.109375 114.804688 165.554688 116.796875 C 168.011719 118.792969 170.535156 120.71875 173.085938 122.613281 C 183.316406 130.148438 193.871094 137.292969 204.523438 144.253906 L 203.816406 144.246094 C 208.628906 141.277344 213.449219 138.457031 218.40625 135.578125 Z M 218.40625 135.578125 " fill-opacity="1" fill-rule="nonzero"/><path fill="#0cc0df" d="M 184.292969 102.617188 C 181.804688 108.105469 177.328125 112.539062 171.621094 115.246094 C 170.574219 115.746094 169.484375 116.183594 168.355469 116.5625 L 167.238281 116.933594 C 167.238281 116.933594 156.96875 117.5 153.0625 107.003906 C 151.058594 101.625 152.820312 96.132812 156.335938 92.492188 C 159.675781 89.035156 164.601562 87.253906 169.382812 88.828125 C 179.1875 92.058594 184.292969 102.617188 184.292969 102.617188 Z M 184.292969 102.617188 " fill-opacity="1" fill-rule="nonzero"/><path fill="#0cc0df" d="M 173.179688 114.117188 L 171.621094 115.246094 C 170.574219 115.742188 169.484375 116.179688 168.355469 116.558594 L 167.238281 116.929688 C 167.238281 116.929688 156.96875 117.496094 153.0625 107.003906 C 151.058594 101.621094 152.820312 96.132812 156.335938 92.492188 C 155.519531 97.105469 153.863281 113.933594 173.179688 114.117188 Z M 173.179688 114.117188 " fill-opacity="1" fill-rule="nonzero"/><path fill="#2b2b2b" d="M 165.8125 88.925781 C 162.585938 88.925781 159.332031 90.347656 156.800781 92.980469 C 153.128906 96.789062 151.9375 102.074219 153.6875 106.769531 C 157.226562 116.277344 166.078125 116.296875 167.113281 116.269531 L 168.144531 115.925781 C 175.058594 113.609375 180.65625 108.777344 183.546875 102.632812 C 182.667969 100.96875 177.714844 92.277344 169.171875 89.460938 C 168.078125 89.101562 166.949219 88.925781 165.8125 88.925781 Z M 167.039062 117.605469 C 165.433594 117.605469 156.132812 117.164062 152.433594 107.238281 C 150.503906 102.054688 151.808594 96.234375 155.835938 92.050781 C 159.621094 88.121094 164.890625 86.640625 169.59375 88.191406 C 179.554688 91.472656 184.683594 101.882812 184.894531 102.324219 L 185.03125 102.609375 L 184.902344 102.894531 C 181.898438 109.511719 175.945312 114.726562 168.570312 117.195312 L 167.367188 117.597656 L 167.273438 117.601562 C 167.265625 117.601562 167.183594 117.605469 167.039062 117.605469 Z M 167.039062 117.605469 " fill-opacity="1" fill-rule="nonzero"/><path fill="#0cc0df" d="M 265.300781 262.925781 L 249.664062 265.800781 C 248.140625 266.082031 246.632812 265.972656 245.257812 265.550781 C 242.453125 264.691406 240.167969 262.515625 239.324219 259.597656 C 239.292969 259.496094 239.261719 259.394531 239.238281 259.292969 L 230.246094 223.328125 C 229.269531 219.410156 215.015625 206.34375 214.855469 200.277344 L 215.71875 200.117188 L 224.0625 198.585938 L 220.105469 182.75 C 218.847656 177.707031 222.320312 172.660156 227.605469 171.84375 L 234.277344 170.820312 C 238.542969 170.164062 242.664062 172.507812 244.140625 176.433594 L 271.046875 247.949219 L 272.246094 251.132812 C 274.183594 256.265625 270.863281 261.90625 265.300781 262.925781 Z M 265.300781 262.925781 " fill-opacity="1" fill-rule="nonzero"/><path fill="#0cc0df" d="M 248.671875 249.792969 L 245.257812 265.550781 C 242.453125 264.691406 240.167969 262.515625 239.324219 259.597656 C 239.292969 259.496094 239.261719 259.394531 239.238281 259.292969 L 230.246094 223.328125 C 229.269531 219.410156 215.015625 206.34375 214.855469 200.277344 L 215.71875 200.117188 L 233.390625 209.160156 Z M 248.671875 249.792969 " fill-opacity="1" fill-rule="nonzero"/><path fill="#2b2b2b" d="M 273.542969 250.640625 C 274.003906 251.886719 274.230469 253.222656 274.183594 254.5625 C 274.136719 255.894531 273.816406 257.214844 273.265625 258.425781 C 272.160156 260.851562 270.070312 262.777344 267.613281 263.769531 C 267.296875 263.882812 266.988281 264.003906 266.675781 264.105469 L 265.710938 264.339844 C 265.109375 264.46875 264.574219 264.558594 264 264.671875 L 253.863281 266.59375 L 250.484375 267.238281 C 250.199219 267.289062 249.933594 267.34375 249.582031 267.394531 C 249.253906 267.4375 248.921875 267.496094 248.585938 267.5 C 248.25 267.515625 247.917969 267.542969 247.582031 267.515625 C 247.246094 267.503906 246.910156 267.496094 246.578125 267.441406 C 243.910156 267.121094 241.367188 265.75 239.65625 263.632812 C 239.433594 263.375 239.25 263.085938 239.050781 262.8125 C 238.863281 262.527344 238.703125 262.226562 238.53125 261.933594 C 238.378906 261.628906 238.242188 261.316406 238.101562 261.003906 L 237.773438 260.066406 C 237.660156 259.667969 237.601562 259.417969 237.53125 259.136719 L 237.320312 258.304688 L 236.898438 256.636719 L 235.214844 249.96875 L 231.925781 236.613281 L 228.714844 223.457031 C 228.578125 223.097656 228.304688 222.632812 228.039062 222.195312 C 227.75 221.75 227.445312 221.296875 227.117188 220.851562 C 226.46875 219.949219 225.773438 219.058594 225.066406 218.167969 C 223.660156 216.378906 222.214844 214.585938 220.804688 212.757812 C 219.40625 210.917969 218.011719 209.054688 216.789062 207.046875 C 216.171875 206.042969 215.589844 205.015625 215.097656 203.917969 C 214.613281 202.820312 214.203125 201.628906 214.1875 200.296875 L 214.1875 200.292969 L 214.140625 199.726562 L 214.734375 199.617188 L 223.941406 197.925781 L 223.414062 198.746094 L 219.367188 183 C 218.992188 181.585938 218.957031 180.054688 219.277344 178.613281 C 219.59375 177.164062 220.253906 175.800781 221.171875 174.644531 C 222.085938 173.484375 223.265625 172.53125 224.601562 171.890625 C 225.269531 171.570312 225.96875 171.3125 226.6875 171.144531 C 227.433594 170.96875 228.082031 170.882812 228.753906 170.769531 L 232.765625 170.128906 C 233.445312 170.027344 234.066406 169.90625 234.835938 169.832031 C 235.207031 169.792969 235.578125 169.792969 235.949219 169.789062 C 236.320312 169.8125 236.695312 169.8125 237.0625 169.875 C 240.027344 170.226562 242.796875 172.015625 244.335938 174.613281 C 244.511719 174.945312 244.710938 175.265625 244.847656 175.617188 L 245.066406 176.132812 L 245.25 176.609375 L 245.976562 178.503906 L 247.425781 182.300781 L 250.328125 189.894531 Z M 270.953125 251.613281 L 248.367188 190.636719 L 245.542969 183.015625 L 244.132812 179.203125 L 243.429688 177.296875 L 243.25 176.820312 L 243.074219 176.402344 C 242.96875 176.117188 242.808594 175.859375 242.675781 175.59375 C 241.46875 173.507812 239.246094 172.023438 236.824219 171.710938 C 236.523438 171.652344 236.214844 171.65625 235.914062 171.628906 C 235.609375 171.632812 235.300781 171.625 234.996094 171.65625 C 234.414062 171.703125 233.707031 171.824219 233.042969 171.917969 L 229.023438 172.515625 C 228.355469 172.613281 227.660156 172.707031 227.085938 172.835938 C 226.484375 172.96875 225.902344 173.175781 225.34375 173.433594 C 224.230469 173.949219 223.234375 174.730469 222.460938 175.6875 C 220.898438 177.589844 220.25 180.210938 220.875 182.625 L 224.714844 198.421875 L 224.882812 199.121094 L 224.183594 199.242188 L 214.976562 200.9375 L 215.527344 200.261719 C 215.640625 201.226562 216.085938 202.222656 216.597656 203.179688 C 217.125 204.132812 217.753906 205.058594 218.414062 205.960938 C 219.75 207.761719 221.191406 209.511719 222.6875 211.230469 L 227.199219 216.421875 C 227.949219 217.300781 228.695312 218.191406 229.421875 219.128906 C 229.785156 219.59375 230.144531 220.082031 230.492188 220.589844 C 230.835938 221.117188 231.1875 221.625 231.484375 222.332031 C 231.558594 222.511719 231.625 222.726562 231.6875 222.925781 L 231.804688 223.351562 L 232.019531 224.183594 L 232.453125 225.851562 L 233.324219 229.179688 L 238.410156 249.195312 L 240.0625 255.875 L 240.871094 259.121094 C 241.144531 260.070312 241.570312 260.871094 242.160156 261.609375 C 243.332031 263.066406 245.101562 264.046875 246.984375 264.300781 C 247.21875 264.347656 247.457031 264.351562 247.695312 264.367188 C 247.929688 264.390625 248.167969 264.367188 248.40625 264.363281 C 248.644531 264.367188 248.882812 264.324219 249.121094 264.292969 C 249.339844 264.273438 249.636719 264.21875 249.917969 264.167969 L 253.304688 263.566406 L 260.082031 262.359375 L 263.46875 261.757812 C 264.023438 261.65625 264.617188 261.558594 265.140625 261.453125 L 265.851562 261.285156 C 266.082031 261.214844 266.304688 261.128906 266.535156 261.050781 C 268.328125 260.351562 269.867188 258.972656 270.6875 257.21875 C 271.515625 255.472656 271.613281 253.433594 270.953125 251.613281 Z M 270.953125 251.613281 " fill-opacity="1" fill-rule="nonzero"/><path fill="#0cc0df" d="M 227.566406 191.648438 L 222.707031 204.539062 C 221.28125 205.667969 218.703125 207.292969 215.710938 209.105469 C 208.683594 213.347656 199.355469 218.570312 197.308594 220.527344 L 171.652344 245.011719 L 170.492188 246.117188 C 169.96875 246.617188 169.40625 247.039062 168.800781 247.378906 C 165.5 249.257812 161.1875 248.808594 158.207031 246.050781 L 146.519531 235.265625 C 142.367188 231.429688 142.574219 224.894531 146.957031 221.582031 L 148.59375 220.34375 L 210.625 173.460938 C 213.96875 170.933594 218.710938 171.152344 221.964844 173.984375 L 227.054688 178.417969 C 231.085938 181.933594 231.324219 188.058594 227.566406 191.648438 Z M 227.566406 191.648438 " fill-opacity="1" fill-rule="nonzero"/><path fill="#f6f4f1" d="M 185.171875 198.4375 L 155.492188 219.523438 L 152.355469 219.027344 L 150.683594 218.761719 L 149.003906 218.496094 L 182.484375 193.382812 L 182.996094 194.34375 L 183.507812 195.308594 Z M 185.171875 198.4375 " fill-opacity="1" fill-rule="nonzero"/><path fill="#0cc0df" d="M 216.816406 206.515625 C 216.792969 206.660156 216.382812 207.605469 215.710938 209.105469 C 208.679688 213.347656 199.355469 218.570312 197.308594 220.527344 L 171.652344 245.011719 L 170.492188 246.117188 C 169.96875 246.617188 169.402344 247.039062 168.800781 247.378906 L 169.925781 228.777344 L 201.402344 204.585938 C 201.402344 204.585938 216.980469 205.554688 216.816406 206.515625 Z M 216.816406 206.515625 " fill-opacity="1" fill-rule="nonzero"/><path fill="#2b2b2b" d="M 226.988281 191.289062 L 226.941406 191.410156 L 222.167969 204.144531 C 221.949219 204.273438 221.738281 204.398438 221.53125 204.53125 L 221.226562 204.738281 L 220.855469 204.964844 C 220.363281 205.269531 219.878906 205.582031 219.375 205.882812 C 218.382812 206.488281 217.367188 207.070312 216.359375 207.652344 C 216.355469 207.652344 216.355469 207.65625 216.347656 207.65625 L 210.210938 211.117188 C 208.160156 212.261719 206.117188 213.4375 204.070312 214.617188 C 203.046875 215.203125 202.03125 215.8125 201.019531 216.429688 C 200.007812 217.054688 199 217.679688 197.988281 218.378906 L 197.230469 218.917969 L 196.449219 219.5625 L 195.160156 220.773438 L 192.597656 223.203125 L 187.480469 228.066406 L 177.28125 237.824219 L 172.183594 242.707031 L 169.632812 245.144531 C 169.398438 245.367188 169.15625 245.578125 168.902344 245.765625 C 168.351562 246.175781 167.753906 246.507812 167.105469 246.742188 C 165.230469 247.453125 163.0625 247.359375 161.214844 246.519531 C 160.976562 246.425781 160.757812 246.300781 160.542969 246.175781 C 160.3125 246.058594 160.109375 245.910156 159.898438 245.765625 C 159.679688 245.632812 159.492188 245.460938 159.296875 245.296875 C 159.109375 245.152344 158.890625 244.945312 158.671875 244.746094 L 156.078125 242.355469 L 150.886719 237.574219 L 148.289062 235.183594 C 147.371094 234.347656 146.660156 233.691406 146.097656 232.832031 C 144.949219 231.152344 144.542969 228.996094 144.933594 227.019531 C 145.132812 226.03125 145.523438 225.085938 146.097656 224.257812 C 146.253906 224.058594 146.378906 223.839844 146.550781 223.660156 C 146.722656 223.480469 146.890625 223.289062 147.070312 223.109375 L 147.644531 222.621094 C 147.851562 222.453125 148.109375 222.269531 148.335938 222.089844 L 152.359375 219.03125 L 183.507812 195.3125 L 193.257812 187.882812 L 204.476562 179.316406 L 210.085938 175.023438 L 210.785156 174.488281 L 211.132812 174.222656 L 211.464844 173.992188 C 211.671875 173.832031 211.898438 173.699219 212.132812 173.570312 C 212.355469 173.433594 212.601562 173.339844 212.835938 173.222656 C 213.804688 172.796875 214.867188 172.59375 215.921875 172.585938 C 216.984375 172.585938 218.054688 172.773438 219.042969 173.179688 C 219.535156 173.382812 220.019531 173.621094 220.464844 173.914062 C 220.691406 174.058594 220.914062 174.207031 221.121094 174.382812 L 221.4375 174.632812 L 221.769531 174.917969 L 224.445312 177.222656 L 225.785156 178.371094 L 226.453125 178.945312 C 226.667969 179.136719 226.847656 179.324219 227.046875 179.507812 C 228.566406 181.039062 229.480469 183.15625 229.5 185.324219 L 229.5 185.46875 C 229.5 187.582031 228.636719 189.683594 227.105469 191.164062 Z M 228.175781 178.40625 C 227.945312 178.1875 227.714844 177.945312 227.492188 177.75 L 226.832031 177.164062 L 225.507812 176 L 222.855469 173.664062 L 222.527344 173.371094 L 222.15625 173.070312 C 221.914062 172.859375 221.652344 172.679688 221.378906 172.503906 C 220.847656 172.140625 220.273438 171.851562 219.683594 171.597656 C 218.503906 171.097656 217.210938 170.847656 215.925781 170.835938 C 214.636719 170.824219 213.332031 171.058594 212.136719 171.566406 C 211.84375 171.699219 211.539062 171.816406 211.257812 171.988281 C 210.972656 172.136719 210.691406 172.296875 210.429688 172.492188 L 210.03125 172.761719 L 209.675781 173.03125 L 208.96875 173.554688 L 203.308594 177.777344 L 192.007812 186.230469 L 182.480469 193.382812 L 149.003906 218.496094 L 146.84375 220.117188 C 146.601562 220.296875 146.378906 220.457031 146.132812 220.660156 L 145.363281 221.3125 C 145.128906 221.546875 144.898438 221.796875 144.671875 222.042969 C 144.441406 222.292969 144.261719 222.578125 144.058594 222.847656 C 143.285156 223.953125 142.757812 225.21875 142.496094 226.535156 C 141.964844 229.164062 142.503906 231.996094 144.003906 234.21875 C 144.167969 234.503906 144.402344 234.753906 144.597656 235.019531 C 144.792969 235.292969 145.027344 235.535156 145.257812 235.769531 L 145.605469 236.128906 C 145.726562 236.246094 145.824219 236.332031 145.9375 236.433594 L 146.582031 237.039062 L 149.171875 239.429688 L 154.351562 244.222656 L 156.941406 246.621094 C 157.15625 246.820312 157.363281 247.015625 157.632812 247.238281 C 157.886719 247.453125 158.140625 247.675781 158.421875 247.855469 C 158.695312 248.046875 158.972656 248.242188 159.265625 248.398438 C 159.554688 248.5625 159.851562 248.730469 160.15625 248.855469 C 162.597656 249.96875 165.472656 250.105469 168.011719 249.160156 C 169.277344 248.699219 170.457031 247.949219 171.417969 247.019531 L 173.976562 244.589844 L 179.085938 239.722656 L 189.316406 229.992188 L 194.410156 225.109375 L 196.957031 222.664062 L 198.222656 221.441406 L 198.792969 220.953125 L 199.464844 220.457031 C 201.304688 219.136719 203.328125 217.917969 205.304688 216.671875 L 211.308594 212.972656 C 213.308594 211.738281 215.3125 210.496094 217.289062 209.195312 C 218.28125 208.550781 219.265625 207.898438 220.242188 207.21875 C 220.730469 206.890625 221.21875 206.53125 221.695312 206.175781 L 222.058594 205.914062 L 222.457031 205.589844 C 222.726562 205.371094 222.988281 205.148438 223.242188 204.925781 L 228.136719 192.019531 C 229.925781 190.292969 230.964844 187.808594 230.957031 185.316406 C 230.976562 182.769531 229.949219 180.238281 228.175781 178.40625 Z M 228.175781 178.40625 " fill-opacity="1" fill-rule="nonzero"/><path fill="#0cc0df" d="M 177.613281 188.707031 L 176.644531 193.058594 C 176.222656 194.945312 177.28125 196.839844 179.105469 197.46875 C 186.054688 199.867188 202.996094 205.527344 216.617188 208.566406 C 230.277344 211.613281 248.738281 214.195312 256.296875 215.195312 C 258.246094 215.453125 260.070312 214.179688 260.496094 212.261719 L 262.296875 204.175781 C 262.765625 202.070312 261.390625 199.996094 259.265625 199.617188 L 181.984375 185.800781 C 179.984375 185.4375 178.058594 186.722656 177.613281 188.707031 Z M 177.613281 188.707031 " fill-opacity="1" fill-rule="nonzero"/><path fill="#0cc0df" d="M 177.816406 186.65625 L 176.847656 191.011719 C 176.425781 192.894531 177.484375 194.792969 179.308594 195.421875 C 186.253906 197.820312 203.199219 203.480469 216.820312 206.515625 C 230.480469 209.5625 248.941406 212.144531 256.5 213.148438 C 258.449219 213.402344 260.269531 212.132812 260.699219 210.210938 L 262.5 202.128906 C 262.96875 200.019531 261.589844 197.945312 259.46875 197.566406 L 182.1875 183.75 C 180.1875 183.390625 178.261719 184.675781 177.816406 186.65625 Z M 177.816406 186.65625 " fill-opacity="1" fill-rule="nonzero"/><path fill="#2b2b2b" d="M 181.308594 186.40625 C 179.871094 186.40625 178.59375 187.398438 178.269531 188.851562 L 177.296875 193.203125 C 176.953125 194.757812 177.824219 196.316406 179.324219 196.835938 C 186.035156 199.152344 203.117188 204.867188 216.761719 207.910156 C 230.445312 210.964844 249.03125 213.554688 256.386719 214.527344 C 258 214.742188 259.488281 213.703125 259.84375 212.113281 L 261.644531 204.027344 C 261.832031 203.191406 261.675781 202.332031 261.195312 201.617188 C 260.71875 200.902344 259.992188 200.425781 259.144531 200.273438 L 181.863281 186.457031 C 181.679688 186.421875 181.496094 186.40625 181.308594 186.40625 Z M 256.8125 215.894531 C 256.613281 215.894531 256.410156 215.882812 256.210938 215.855469 C 248.839844 214.878906 230.207031 212.28125 216.46875 209.214844 C 202.757812 206.15625 185.621094 200.425781 178.886719 198.101562 C 176.742188 197.359375 175.496094 195.128906 175.992188 192.910156 L 176.960938 188.554688 C 177.484375 186.214844 179.742188 184.710938 182.101562 185.132812 L 259.382812 198.949219 C 260.589844 199.164062 261.632812 199.847656 262.3125 200.871094 C 262.992188 201.894531 263.222656 203.117188 262.953125 204.316406 L 261.152344 212.398438 C 260.6875 214.480469 258.878906 215.894531 256.8125 215.894531 Z M 256.8125 215.894531 " fill-opacity="1" fill-rule="nonzero"/><path fill="#0cc0df" d="M 269.109375 199.585938 C 267.402344 206.75 258.984375 209.082031 249.550781 209.304688 C 235.585938 209.636719 219.386719 205.363281 219.386719 205.363281 C 219.386719 205.363281 202.902344 202.347656 190.40625 196.113281 C 185.441406 193.636719 181.101562 190.652344 178.675781 187.148438 C 176.976562 184.6875 176.210938 181.976562 176.828125 179.003906 C 179.667969 165.3125 201.257812 132.585938 211.246094 117.976562 C 214.3125 113.488281 216.28125 110.710938 216.28125 110.710938 L 239.023438 117.308594 L 262.425781 121 C 262.425781 121 273.355469 181.816406 269.109375 199.585938 Z M 269.109375 199.585938 " fill-opacity="1" fill-rule="nonzero"/><path fill="#0cc0df" d="M 222.496094 130.363281 C 222.496094 130.363281 218.863281 133.378906 215.707031 138.535156 C 212.550781 143.699219 199.324219 155.527344 194.253906 157.785156 C 189.183594 160.039062 178.027344 181.226562 178.96875 185.734375 C 179.101562 186.375 178.980469 186.828125 178.675781 187.144531 C 176.976562 184.6875 176.210938 181.976562 176.828125 179 C 179.667969 165.3125 201.257812 132.585938 211.246094 117.972656 Z M 222.496094 130.363281 " fill-opacity="1" fill-rule="nonzero"/><path fill="#2b2b2b" d="M 267.660156 199.242188 C 268.292969 196.222656 268.496094 192.96875 268.605469 189.730469 C 268.699219 186.484375 268.640625 183.210938 268.511719 179.9375 C 268.238281 173.386719 267.691406 166.832031 267.027344 160.28125 C 266.355469 153.734375 265.5625 147.195312 264.675781 140.667969 C 263.796875 134.140625 262.832031 127.617188 261.765625 121.121094 L 262.320312 121.664062 L 238.921875 117.972656 L 238.882812 117.96875 L 238.84375 117.957031 L 216.097656 111.351562 L 216.828125 111.097656 C 210.503906 120.191406 204.378906 129.441406 198.484375 138.824219 C 195.546875 143.519531 192.667969 148.253906 189.90625 153.050781 C 187.164062 157.851562 184.484375 162.699219 182.136719 167.679688 C 180.964844 170.167969 179.851562 172.6875 178.960938 175.253906 C 178.726562 175.890625 178.550781 176.542969 178.34375 177.1875 C 178.140625 177.828125 178.015625 178.476562 177.847656 179.125 C 177.613281 180.367188 177.601562 181.609375 177.855469 182.824219 C 178.40625 185.257812 179.988281 187.425781 181.917969 189.214844 C 183.859375 191.015625 186.117188 192.527344 188.492188 193.835938 C 190.863281 195.15625 193.359375 196.28125 195.890625 197.324219 C 198.429688 198.347656 201.023438 199.25 203.640625 200.085938 C 206.261719 200.921875 208.910156 201.664062 211.578125 202.339844 C 214.242188 203.011719 216.945312 203.628906 219.613281 204.128906 L 219.65625 204.136719 L 219.707031 204.148438 C 221.839844 204.683594 224.042969 205.152344 226.226562 205.582031 C 228.417969 206.007812 230.617188 206.390625 232.820312 206.710938 C 237.230469 207.371094 241.667969 207.8125 246.089844 207.914062 C 248.296875 207.957031 250.507812 207.933594 252.683594 207.734375 C 254.863281 207.542969 257.015625 207.214844 259.066406 206.636719 C 261.105469 206.054688 263.039062 205.207031 264.597656 203.984375 C 266.164062 202.773438 267.191406 201.113281 267.660156 199.242188 Z M 270.5625 199.933594 C 269.949219 202.425781 268.425781 204.765625 266.402344 206.28125 C 264.394531 207.824219 262.109375 208.765625 259.828125 209.398438 C 257.535156 210.015625 255.21875 210.347656 252.914062 210.53125 C 250.605469 210.71875 248.304688 210.722656 246.019531 210.660156 C 241.441406 210.515625 236.910156 210.019531 232.421875 209.308594 C 230.179688 208.960938 227.945312 208.554688 225.722656 208.101562 C 223.492188 207.640625 221.296875 207.15625 219.066406 206.574219 L 219.160156 206.597656 C 216.382812 206.046875 213.679688 205.40625 210.96875 204.695312 C 208.265625 203.984375 205.578125 203.210938 202.917969 202.335938 C 200.253906 201.460938 197.617188 200.515625 195.019531 199.441406 C 192.429688 198.347656 189.871094 197.167969 187.402344 195.765625 C 184.9375 194.375 182.554688 192.765625 180.441406 190.773438 C 179.402344 189.761719 178.398438 188.683594 177.605469 187.414062 C 176.808594 186.15625 176.132812 184.773438 175.828125 183.261719 C 175.519531 181.753906 175.554688 180.183594 175.855469 178.703125 C 176.042969 178.007812 176.191406 177.292969 176.40625 176.613281 C 176.632812 175.941406 176.824219 175.25 177.074219 174.589844 C 178.027344 171.921875 179.183594 169.367188 180.398438 166.851562 C 182.828125 161.8125 185.566406 156.964844 188.367188 152.15625 C 191.1875 147.359375 194.117188 142.636719 197.101562 137.953125 C 203.097656 128.59375 209.308594 119.390625 215.734375 110.320312 L 215.738281 110.320312 L 216.011719 109.929688 L 216.46875 110.0625 L 239.214844 116.667969 L 239.132812 116.648438 L 262.53125 120.335938 L 263 120.410156 L 263.082031 120.878906 C 264.300781 127.375 265.414062 133.878906 266.453125 140.402344 C 267.484375 146.925781 268.433594 153.464844 269.261719 160.027344 C 270.078125 166.585938 270.777344 173.171875 271.207031 179.792969 C 271.410156 183.109375 271.546875 186.433594 271.53125 189.78125 C 271.5 193.132812 271.351562 196.503906 270.5625 199.933594 Z M 270.5625 199.933594 " fill-opacity="1" fill-rule="nonzero"/><path fill="#0cc0df" d="M 252.457031 138.789062 C 252.457031 138.789062 253.402344 167.617188 269.027344 174.671875 L 269.03125 174.671875 C 267.84375 160.257812 265.511719 144.234375 263.878906 133.992188 C 259.695312 135.53125 252.457031 138.789062 252.457031 138.789062 Z M 252.457031 138.789062 " fill-opacity="1" fill-rule="nonzero"/><path fill="#2b2b2b" d="M 253.148438 139.214844 C 253.351562 142.769531 255.1875 166.492188 268.261719 173.546875 C 267.097656 159.964844 264.980469 145.246094 263.34375 134.90625 C 259.785156 136.269531 254.636719 138.550781 253.148438 139.214844 Z M 269.773438 175.546875 L 268.75 175.28125 C 252.929688 168.136719 251.828125 140.007812 251.789062 138.8125 L 251.773438 138.363281 L 252.179688 138.179688 C 252.253906 138.144531 259.488281 134.894531 263.644531 133.363281 L 264.410156 133.082031 L 264.535156 133.886719 C 266.242188 144.570312 268.519531 160.3125 269.695312 174.617188 Z M 269.773438 175.546875 " fill-opacity="1" fill-rule="nonzero"/><path fill="#0cc0df" d="M 218.617188 129.015625 C 218.617188 129.015625 205.511719 154.707031 188.371094 154.453125 L 188.367188 154.453125 C 195.566406 141.910156 204.488281 128.394531 210.320312 119.820312 C 213.449219 122.988281 218.617188 129.015625 218.617188 129.015625 Z M 218.617188 129.015625 " fill-opacity="1" fill-rule="nonzero"/><path fill="#2b2b2b" d="M 210.410156 120.871094 C 204.535156 129.539062 196.367188 141.964844 189.539062 153.761719 C 204.375 152.929688 216.117188 132.238281 217.8125 129.101562 C 216.746094 127.871094 213.054688 123.621094 210.410156 120.871094 Z M 188.628906 155.125 C 188.539062 155.125 188.449219 155.125 188.363281 155.121094 L 188.238281 155.109375 L 187.328125 154.925781 L 187.785156 154.121094 C 194.929688 141.675781 203.679688 128.394531 209.765625 119.445312 L 210.222656 118.769531 L 210.792969 119.351562 C 213.90625 122.5 219.074219 128.519531 219.125 128.578125 L 219.417969 128.917969 L 219.214844 129.316406 C 218.675781 130.375 205.851562 155.125 188.628906 155.125 Z M 188.628906 155.125 " fill-opacity="1" fill-rule="nonzero"/><path fill="#0cc0df" d="M 257.078125 175.558594 L 249.554688 209.304688 C 235.585938 209.632812 219.386719 205.359375 219.386719 205.359375 C 219.386719 205.359375 205.851562 202.886719 194.015625 197.785156 C 192.789062 197.253906 191.582031 196.695312 190.410156 196.113281 L 197.933594 162.363281 C 198.640625 159.207031 201.769531 157.222656 204.917969 157.925781 L 211.699219 159.4375 L 252.640625 168.570312 C 255.796875 169.273438 257.78125 172.398438 257.078125 175.558594 Z M 257.078125 175.558594 " fill-opacity="1" fill-rule="nonzero"/><path fill="#0cc0df" d="M 214.304688 160.878906 C 214.304688 160.878906 203.25 158.753906 201.402344 163.050781 C 199.855469 166.65625 195.421875 190.21875 194.015625 197.785156 C 192.789062 197.253906 191.578125 196.695312 190.40625 196.113281 L 197.933594 162.363281 C 198.636719 159.207031 201.769531 157.222656 204.917969 157.925781 L 211.695312 159.4375 Z M 214.304688 160.878906 " fill-opacity="1" fill-rule="nonzero"/><path fill="#2b2b2b" d="M 256.257812 175.375 C 256.441406 174.484375 256.417969 173.546875 256.113281 172.6875 C 255.832031 171.820312 255.289062 171.050781 254.601562 170.457031 C 254.253906 170.164062 253.867188 169.925781 253.457031 169.730469 C 253.246094 169.648438 253.039062 169.550781 252.820312 169.492188 L 252.492188 169.402344 L 252.109375 169.3125 L 249.003906 168.621094 L 236.578125 165.847656 L 211.722656 160.304688 L 205.511719 158.917969 L 204.734375 158.746094 C 204.511719 158.71875 204.289062 158.652344 204.0625 158.648438 C 203.609375 158.59375 203.152344 158.648438 202.707031 158.714844 C 202.261719 158.808594 201.828125 158.953125 201.417969 159.152344 C 201.019531 159.367188 200.625 159.605469 200.292969 159.917969 C 199.960938 160.226562 199.652344 160.566406 199.417969 160.957031 C 199.167969 161.335938 198.984375 161.753906 198.851562 162.191406 L 198.761719 162.519531 L 198.671875 162.902344 L 198.5 163.679688 L 198.152344 165.230469 L 196.761719 171.445312 L 193.929688 183.855469 L 192.511719 190.0625 L 191.058594 196.261719 L 190.703125 195.515625 C 192.964844 196.617188 195.277344 197.628906 197.636719 198.53125 C 199.996094 199.421875 202.382812 200.257812 204.800781 200.996094 C 207.21875 201.738281 209.65625 202.425781 212.109375 203.046875 C 214.558594 203.664062 217.039062 204.234375 219.503906 204.710938 L 219.53125 204.710938 L 219.554688 204.71875 C 221.988281 205.339844 224.476562 205.875 226.957031 206.355469 C 229.441406 206.839844 231.9375 207.253906 234.441406 207.609375 C 236.945312 207.96875 239.460938 208.222656 241.976562 208.421875 C 244.496094 208.609375 247.015625 208.671875 249.53125 208.640625 L 248.894531 209.160156 L 250.707031 200.710938 L 252.558594 192.265625 Z M 257.898438 175.738281 L 252.15625 201.027344 L 250.203125 209.449219 L 250.082031 209.972656 L 249.566406 209.972656 C 247 210.007812 244.433594 209.941406 241.882812 209.75 C 239.332031 209.550781 236.785156 209.292969 234.257812 208.929688 C 231.730469 208.570312 229.210938 208.148438 226.703125 207.667969 C 224.195312 207.175781 221.707031 206.640625 219.214844 206.007812 L 219.265625 206.019531 C 216.742188 205.53125 214.261719 204.960938 211.785156 204.335938 C 209.308594 203.710938 206.851562 203.023438 204.410156 202.269531 C 201.964844 201.523438 199.550781 200.679688 197.15625 199.777344 C 194.765625 198.863281 192.417969 197.832031 190.105469 196.710938 L 189.636719 196.496094 L 189.75 195.964844 L 191.066406 189.738281 L 192.421875 183.515625 L 195.132812 171.078125 L 196.511719 164.863281 L 196.859375 163.308594 L 197.03125 162.53125 L 197.121094 162.140625 L 197.242188 161.703125 C 197.417969 161.121094 197.664062 160.5625 197.996094 160.050781 C 198.316406 159.53125 198.722656 159.074219 199.167969 158.667969 C 199.613281 158.253906 200.132812 157.929688 200.667969 157.648438 C 201.210938 157.382812 201.789062 157.1875 202.386719 157.066406 C 202.980469 156.96875 203.59375 156.90625 204.199219 156.976562 C 204.503906 156.984375 204.796875 157.0625 205.097656 157.105469 L 205.875 157.28125 L 212.085938 158.664062 L 236.9375 164.210938 L 249.367188 166.980469 L 252.472656 167.675781 L 252.863281 167.761719 L 253.304688 167.882812 C 253.59375 167.960938 253.875 168.085938 254.15625 168.199219 C 254.703125 168.460938 255.222656 168.785156 255.6875 169.175781 C 256.605469 169.964844 257.324219 170.996094 257.703125 172.148438 C 258.105469 173.296875 258.144531 174.554688 257.898438 175.738281 Z M 257.898438 175.738281 " fill-opacity="1" fill-rule="nonzero"/><path fill="#2b2b2b" d="M 186.449219 230.121094 C 180.03125 211.324219 165.757812 209.089844 165.152344 209.007812 L 165.515625 206.371094 C 166.1875 206.464844 181.996094 208.847656 188.964844 229.261719 Z M 186.449219 230.121094 " fill-opacity="1" fill-rule="nonzero"/><path fill="#2b2b2b" d="M 234.375 236.144531 L 232.484375 234.273438 C 232.960938 233.792969 244.355469 222.574219 264.867188 229.246094 L 264.042969 231.777344 C 245.15625 225.632812 234.804688 235.710938 234.375 236.144531 Z M 234.375 236.144531 " fill-opacity="1" fill-rule="nonzero"/><path fill="#0cc0df" d="M 171.246094 247.519531 C 166.601562 252.550781 159.183594 249.941406 151.691406 243.035156 C 150.734375 242.144531 149.816406 241.234375 148.96875 240.296875 C 145.070312 236.054688 142.40625 231.46875 142.296875 227.585938 C 142.238281 225.675781 142.800781 223.9375 144.132812 222.492188 C 146.675781 219.734375 150.769531 218.945312 155.183594 219.921875 C 158.84375 220.734375 162.710938 222.757812 166.097656 225.890625 C 167.09375 226.808594 167.992188 227.773438 168.800781 228.773438 C 174.078125 235.292969 175.273438 243.160156 171.246094 247.519531 Z M 171.246094 247.519531 " fill-opacity="1" fill-rule="nonzero"/><path fill="#f6f4f1" d="M 155.183594 219.925781 C 154.679688 220.039062 145.199219 222.257812 142.296875 227.585938 C 142.238281 225.675781 142.800781 223.9375 144.132812 222.492188 C 146.675781 219.738281 150.769531 218.949219 155.183594 219.925781 Z M 155.183594 219.925781 " fill-opacity="1" fill-rule="nonzero"/><path fill="#0cc0df" d="M 171.246094 247.519531 C 166.601562 252.550781 159.183594 249.941406 151.691406 243.035156 C 150.734375 242.144531 149.816406 241.234375 148.96875 240.296875 C 152.917969 242.574219 157.339844 243.027344 159.894531 243.789062 C 167.496094 246.058594 168.804688 228.773438 168.804688 228.773438 C 174.078125 235.292969 175.273438 243.160156 171.246094 247.519531 Z M 171.246094 247.519531 " fill-opacity="1" fill-rule="nonzero"/><g clip-path="url(#9526f09cb8)"><path fill="#2b2b2b" d="M 170.289062 246.636719 C 171.453125 245.421875 172.183594 243.792969 172.390625 242.019531 C 172.617188 240.25 172.386719 238.382812 171.882812 236.582031 C 170.851562 232.96875 168.710938 229.628906 165.988281 226.914062 C 163.273438 224.183594 159.929688 221.996094 156.242188 220.902344 C 154.40625 220.355469 152.480469 220.085938 150.601562 220.25 C 148.730469 220.40625 146.90625 221.035156 145.496094 222.195312 C 144.796875 222.78125 144.199219 223.472656 143.78125 224.25 C 143.355469 225.023438 143.15625 225.902344 143.101562 226.789062 C 143.007812 228.585938 143.566406 230.429688 144.371094 232.132812 C 145.183594 233.84375 146.261719 235.453125 147.460938 236.960938 C 148.671875 238.46875 150 239.886719 151.414062 241.214844 C 152.828125 242.546875 154.320312 243.792969 155.871094 244.914062 C 157.425781 246.035156 159.0625 247.027344 160.773438 247.738281 C 162.476562 248.441406 164.257812 248.84375 165.921875 248.738281 C 167.582031 248.609375 169.089844 247.878906 170.289062 246.636719 Z M 172.203125 248.402344 L 171.59375 249 C 171.382812 249.195312 171.195312 249.40625 170.949219 249.566406 C 170.480469 249.90625 170.023438 250.265625 169.484375 250.507812 C 169.21875 250.632812 168.972656 250.796875 168.691406 250.882812 L 167.859375 251.164062 C 167.582031 251.269531 167.292969 251.292969 167.003906 251.351562 C 166.71875 251.394531 166.429688 251.464844 166.144531 251.476562 C 163.832031 251.640625 161.652344 251.019531 159.726562 250.152344 C 157.789062 249.273438 156.046875 248.128906 154.414062 246.882812 C 152.789062 245.628906 151.261719 244.277344 149.84375 242.820312 C 147.015625 239.914062 144.445312 236.671875 142.75 232.867188 C 141.9375 230.96875 141.34375 228.871094 141.527344 226.679688 C 141.628906 225.59375 141.933594 224.503906 142.476562 223.539062 C 143.019531 222.574219 143.765625 221.753906 144.601562 221.085938 C 146.304688 219.75 148.410156 219.054688 150.488281 218.898438 C 152.578125 218.738281 154.652344 219.039062 156.621094 219.605469 C 160.566406 220.773438 164.121094 222.972656 167.121094 225.742188 C 168.621094 227.132812 169.960938 228.699219 171.132812 230.398438 C 172.296875 232.101562 173.257812 233.960938 173.929688 235.953125 C 174.59375 237.941406 174.945312 240.089844 174.757812 242.277344 C 174.585938 244.453125 173.734375 246.683594 172.203125 248.402344 Z M 172.203125 248.402344 " fill-opacity="1" fill-rule="nonzero"/></g><path fill="#0cc0df" d="M 274.855469 258.625 C 272.695312 262.28125 267.417969 264.773438 260.46875 266.050781 C 250.445312 267.890625 240.738281 266.507812 239.5 259.773438 C 238.640625 255.097656 241.800781 250.324219 247.167969 247.222656 C 247.171875 247.21875 247.171875 247.21875 247.171875 247.21875 C 249.539062 245.851562 252.335938 244.804688 255.40625 244.242188 C 265.429688 242.402344 274.550781 246.367188 275.789062 253.101562 C 276.167969 255.164062 275.820312 257.011719 274.855469 258.625 Z M 274.855469 258.625 " fill-opacity="1" fill-rule="nonzero"/><path fill="#0cc0df" d="M 274.855469 258.625 C 272.695312 262.28125 267.417969 264.773438 260.46875 266.050781 C 250.445312 267.890625 240.738281 266.507812 239.5 259.773438 C 238.640625 255.097656 241.800781 250.324219 247.167969 247.222656 C 247.074219 247.5 243.117188 259.132812 256.710938 260.832031 C 264.707031 261.828125 270.992188 260.183594 274.855469 258.625 Z M 274.855469 258.625 " fill-opacity="1" fill-rule="nonzero"/><g clip-path="url(#5eb31e28b5)"><path fill="#2b2b2b" d="M 274.917969 253.261719 C 274.621094 251.507812 273.695312 249.867188 272.351562 248.589844 C 271.015625 247.300781 269.335938 246.335938 267.546875 245.675781 C 263.945312 244.34375 259.933594 244.1875 256.132812 244.847656 C 252.332031 245.507812 248.617188 246.945312 245.609375 249.289062 C 244.109375 250.453125 242.789062 251.835938 241.839844 253.410156 C 240.886719 254.980469 240.355469 256.753906 240.441406 258.492188 C 240.496094 259.359375 240.6875 260.203125 241.042969 260.945312 C 241.390625 261.695312 241.929688 262.335938 242.570312 262.886719 C 243.871094 263.980469 245.621094 264.640625 247.429688 265.019531 C 249.25 265.402344 251.15625 265.535156 253.066406 265.511719 C 254.980469 265.476562 256.90625 265.3125 258.820312 265.023438 C 262.628906 264.429688 266.460938 263.554688 269.777344 261.789062 C 271.417969 260.902344 272.90625 259.757812 273.894531 258.292969 C 274.867188 256.832031 275.195312 255.046875 274.917969 253.261719 Z M 276.664062 252.941406 L 276.769531 253.753906 C 276.800781 254.027344 276.855469 254.296875 276.839844 254.574219 C 276.832031 255.125 276.84375 255.683594 276.722656 256.234375 C 276.578125 257.347656 276.113281 258.394531 275.566406 259.351562 C 274.378906 261.234375 272.675781 262.640625 270.875 263.714844 C 269.066406 264.792969 267.132812 265.558594 265.175781 266.175781 C 263.214844 266.789062 261.222656 267.25 259.207031 267.5625 C 255.183594 268.171875 251.027344 268.359375 246.890625 267.453125 C 245.859375 267.210938 244.835938 266.890625 243.839844 266.445312 C 242.851562 265.992188 241.875 265.433594 241.027344 264.664062 C 240.183594 263.902344 239.449219 262.960938 238.992188 261.886719 C 238.523438 260.816406 238.316406 259.679688 238.285156 258.566406 C 238.25 256.316406 239.011719 254.152344 240.183594 252.375 C 241.351562 250.585938 242.886719 249.109375 244.5625 247.894531 C 247.945312 245.484375 251.882812 244.039062 255.90625 243.429688 C 259.933594 242.835938 264.109375 243.046875 268.015625 244.371094 C 269.960938 245.042969 271.84375 246.023438 273.425781 247.445312 C 275.011719 248.839844 276.230469 250.78125 276.664062 252.941406 Z M 276.664062 252.941406 " fill-opacity="1" fill-rule="nonzero"/></g><path fill="#2b2b2b" d="M 289.667969 155.417969 C 277.949219 148.75 282.492188 133.519531 282.539062 133.367188 L 284.230469 133.886719 C 284.054688 134.457031 280.066406 147.917969 290.546875 153.882812 Z M 289.667969 155.417969 " fill-opacity="1" fill-rule="nonzero"/><path fill="#2b2b2b" d="M 180.082031 129.605469 L 179.863281 127.847656 C 190.09375 126.578125 195.015625 113.039062 195.0625 112.902344 L 196.730469 113.496094 C 196.519531 114.09375 191.398438 128.199219 180.082031 129.605469 Z M 180.082031 129.605469 " fill-opacity="1" fill-rule="nonzero"/><path fill="#0cc0df" d="M 214.308594 171.894531 C 214.308594 175.460938 211.421875 178.347656 207.859375 178.347656 C 207.210938 178.347656 206.585938 178.253906 206 178.078125 C 203.339844 177.28125 201.40625 174.8125 201.40625 171.894531 C 201.40625 168.652344 203.796875 165.976562 206.910156 165.515625 C 207.214844 165.46875 207.539062 165.445312 207.859375 165.445312 C 211.421875 165.445312 214.308594 168.332031 214.308594 171.894531 Z M 214.308594 171.894531 " fill-opacity="1" fill-rule="nonzero"/><path fill="#0cc0df" d="M 214.308594 171.894531 C 214.308594 175.460938 211.421875 178.347656 207.859375 178.347656 C 207.210938 178.347656 206.585938 178.253906 206 178.078125 C 210.859375 173.550781 208.28125 167.816406 206.910156 165.515625 C 207.214844 165.46875 207.539062 165.445312 207.859375 165.445312 C 211.421875 165.445312 214.308594 168.332031 214.308594 171.894531 Z M 214.308594 171.894531 " fill-opacity="1" fill-rule="nonzero"/><path fill="#2b2b2b" d="M 207.855469 166.113281 C 204.667969 166.113281 202.074219 168.707031 202.074219 171.894531 C 202.074219 175.082031 204.667969 177.679688 207.855469 177.679688 C 211.046875 177.679688 213.640625 175.082031 213.640625 171.894531 C 213.640625 168.707031 211.046875 166.113281 207.855469 166.113281 Z M 207.855469 179.015625 C 203.929688 179.015625 200.738281 175.824219 200.738281 171.894531 C 200.738281 167.96875 203.929688 164.773438 207.855469 164.773438 C 211.785156 164.773438 214.976562 167.96875 214.976562 171.894531 C 214.976562 175.824219 211.78125 179.015625 207.855469 179.015625 Z M 207.855469 179.015625 " fill-opacity="1" fill-rule="nonzero"/><path fill="#0cc0df" d="M 187.921875 66.546875 L 193.488281 40.257812 L 196.542969 40.738281 L 193.054688 64.234375 Z M 187.921875 66.546875 " fill-opacity="1" fill-rule="nonzero"/><path fill="#2b2b2b" d="M 194.011719 41.015625 L 188.851562 65.394531 L 192.449219 63.773438 L 195.785156 41.296875 Z M 186.992188 67.695312 L 192.964844 39.496094 L 197.304688 40.179688 L 193.664062 64.695312 Z M 186.992188 67.695312 " fill-opacity="1" fill-rule="nonzero"/><path fill="#0cc0df" d="M 192.886719 107.199219 C 192.886719 107.199219 192.164062 106.925781 191.082031 106.457031 C 188.871094 105.496094 185.199219 103.707031 183.304688 101.730469 C 180.488281 98.785156 181.964844 75.234375 183.230469 71.105469 C 183.964844 68.703125 188.445312 66.050781 192.050781 64.257812 C 194.621094 62.980469 196.746094 62.140625 196.746094 62.140625 Z M 192.886719 107.199219 " fill-opacity="1" fill-rule="nonzero"/><path fill="#0cc0df" d="M 192.886719 107.199219 C 192.886719 107.199219 192.164062 106.925781 191.082031 106.457031 C 181.066406 94.660156 190.523438 65.988281 190.523438 65.988281 L 192.046875 64.257812 C 194.621094 62.980469 196.746094 62.140625 196.746094 62.140625 Z M 192.886719 107.199219 " fill-opacity="1" fill-rule="nonzero"/><path fill="#2b2b2b" d="M 196.992188 62.761719 C 194.796875 63.734375 192.605469 64.796875 190.523438 65.988281 C 189.480469 66.582031 188.464844 67.21875 187.496094 67.890625 C 186.535156 68.566406 185.613281 69.304688 184.90625 70.125 C 184.5625 70.53125 184.28125 70.96875 184.160156 71.351562 C 184.015625 71.824219 183.917969 72.433594 183.824219 73.003906 C 183.644531 74.179688 183.515625 75.378906 183.40625 76.578125 C 183.175781 78.984375 183.019531 81.40625 182.921875 83.828125 C 182.816406 86.25 182.757812 88.675781 182.789062 91.089844 C 182.828125 93.5 182.902344 95.921875 183.234375 98.238281 C 183.277344 98.523438 183.316406 98.8125 183.378906 99.085938 L 183.464844 99.503906 L 183.566406 99.898438 C 183.597656 100.035156 183.640625 100.15625 183.683594 100.273438 C 183.730469 100.386719 183.761719 100.53125 183.816406 100.613281 C 183.863281 100.699219 183.90625 100.832031 183.953125 100.886719 C 183.976562 100.914062 184 100.945312 184.015625 100.976562 L 184.042969 101.023438 L 184.113281 101.09375 C 184.859375 101.878906 185.8125 102.570312 186.792969 103.210938 C 188.773438 104.484375 190.941406 105.589844 193.121094 106.570312 L 192.652344 107.824219 C 191.457031 107.4375 190.316406 106.984375 189.171875 106.488281 C 188.027344 106 186.90625 105.445312 185.8125 104.8125 C 184.71875 104.175781 183.648438 103.464844 182.664062 102.515625 L 182.570312 102.429688 L 182.460938 102.296875 L 182.246094 102.019531 C 182.109375 101.828125 182.050781 101.667969 181.949219 101.488281 C 181.847656 101.308594 181.808594 101.148438 181.742188 100.980469 C 181.675781 100.8125 181.613281 100.644531 181.574219 100.484375 L 181.433594 100 L 181.324219 99.519531 C 181.246094 99.199219 181.195312 98.882812 181.136719 98.570312 C 180.921875 97.308594 180.824219 96.0625 180.742188 94.820312 C 180.660156 93.582031 180.625 92.34375 180.617188 91.109375 C 180.597656 88.640625 180.660156 86.179688 180.785156 83.726562 C 180.917969 81.269531 181.101562 78.816406 181.371094 76.367188 C 181.511719 75.140625 181.671875 73.914062 181.890625 72.675781 C 182.011719 72.050781 182.113281 71.449219 182.339844 70.757812 C 182.609375 69.980469 183.046875 69.402344 183.496094 68.886719 C 184.414062 67.878906 185.445312 67.117188 186.492188 66.410156 C 187.539062 65.710938 188.628906 65.097656 189.730469 64.523438 C 191.9375 63.382812 194.179688 62.378906 196.503906 61.507812 Z M 196.992188 62.761719 " fill-opacity="1" fill-rule="nonzero"/><path fill="#0cc0df" d="M 311.921875 89.128906 L 315.980469 62.566406 L 312.953125 61.9375 L 307.933594 85.15625 Z M 311.921875 89.128906 " fill-opacity="1" fill-rule="nonzero"/><path fill="#2b2b2b" d="M 308.664062 84.9375 L 311.460938 87.722656 L 315.222656 63.09375 L 313.464844 62.730469 Z M 312.386719 90.535156 L 307.203125 85.371094 L 312.4375 61.148438 L 316.738281 62.039062 Z M 312.386719 90.535156 " fill-opacity="1" fill-rule="nonzero"/><path fill="#0cc0df" d="M 303.835938 123.683594 C 302.300781 124.421875 300.144531 124.84375 298.15625 125.089844 C 295.386719 125.429688 292.941406 125.421875 292.941406 125.421875 L 305.21875 81.894531 C 305.21875 81.894531 307.324219 83.804688 309.554688 86.292969 C 312.125 89.144531 314.847656 92.75 314.703125 95.050781 C 314.429688 99.359375 307.511719 121.917969 303.835938 123.683594 Z M 303.835938 123.683594 " fill-opacity="1" fill-rule="nonzero"/><path fill="#0cc0df" d="M 298.15625 125.089844 C 295.386719 125.429688 292.941406 125.421875 292.941406 125.421875 L 305.21875 81.894531 C 305.21875 81.894531 307.324219 83.804688 309.554688 86.292969 C 309.371094 91.046875 308.019531 111.792969 298.15625 125.089844 Z M 298.15625 125.089844 " fill-opacity="1" fill-rule="nonzero"/><path fill="#2b2b2b" d="M 292.941406 126.09375 L 292.945312 124.753906 C 293.015625 124.753906 300.054688 124.753906 303.546875 123.078125 C 306.679688 121.578125 313.730469 99.824219 314.035156 95.011719 C 314.242188 91.746094 307.414062 84.792969 304.765625 82.386719 L 305.664062 81.398438 C 306.691406 82.324219 315.65625 90.597656 315.375 95.09375 C 315.109375 99.253906 308.21875 122.324219 304.125 124.285156 C 300.355469 126.09375 293.242188 126.09375 292.941406 126.09375 Z M 292.941406 126.09375 " fill-opacity="1" fill-rule="nonzero"/><path fill="#0cc0df" d="M 292.957031 125.375 C 292.453125 125.957031 291.941406 126.519531 291.398438 127.066406 C 290.214844 128.300781 288.949219 129.453125 287.605469 130.542969 C 284.753906 132.851562 281.578125 134.835938 278.078125 136.46875 C 267.628906 141.34375 254.328125 143.050781 238.453125 140.792969 C 222.804688 137.308594 210.957031 131.023438 202.898438 122.777344 C 200.199219 120.011719 197.921875 117.035156 196.070312 113.871094 C 195.945312 113.660156 195.824219 113.449219 195.707031 113.238281 C 186.351562 96.628906 188.894531 74.972656 200.90625 52.058594 C 204.441406 45.324219 209.277344 40.210938 214.941406 36.492188 C 227.273438 28.390625 243.523438 26.894531 258.707031 29.585938 C 271.253906 31.933594 283.472656 37.222656 292.238281 45.75 C 298.921875 52.242188 303.601562 60.617188 304.878906 70.996094 C 305.363281 74.898438 305.640625 78.691406 305.726562 82.371094 C 306.160156 100.042969 302.015625 114.941406 292.957031 125.375 Z M 292.957031 125.375 " fill-opacity="1" fill-rule="nonzero"/><path fill="#f6f4f1" d="M 292.242188 45.75 C 285.527344 41.570312 274.453125 36.417969 256.835938 33.316406 C 240.011719 30.355469 225.085938 33.234375 214.941406 36.492188 C 227.273438 28.390625 243.523438 26.894531 258.707031 29.585938 C 271.253906 31.9375 283.472656 37.222656 292.242188 45.75 Z M 292.242188 45.75 " fill-opacity="1" fill-rule="nonzero"/><path fill="#0cc0df" d="M 291.398438 127.066406 C 290.214844 128.300781 288.949219 129.453125 287.605469 130.542969 C 284.753906 132.851562 281.578125 134.835938 278.078125 136.46875 C 267.628906 141.34375 254.328125 143.050781 238.453125 140.792969 C 222.804688 137.308594 210.957031 131.023438 202.898438 122.777344 C 200.199219 120.011719 197.921875 117.035156 196.070312 113.871094 C 195.945312 113.660156 195.824219 113.449219 195.707031 113.238281 C 193.613281 104.433594 192.589844 87.929688 201.214844 71.375 C 215.554688 43.867188 229.71875 39.261719 256.113281 44.066406 C 280.121094 48.441406 301.363281 65.488281 296.976562 103.273438 C 295.890625 112.648438 293.855469 120.523438 291.398438 127.066406 Z M 291.398438 127.066406 " fill-opacity="1" fill-rule="nonzero"/><path fill="#2b2b2b" d="M 292.214844 124.730469 C 296.300781 119.992188 299.269531 114.355469 301.242188 108.402344 C 302.246094 105.425781 302.960938 102.355469 303.5 99.253906 C 304.03125 96.148438 304.390625 93.011719 304.53125 89.855469 C 304.859375 83.550781 304.53125 77.199219 303.730469 70.925781 C 302.933594 64.742188 300.761719 58.761719 297.308594 53.585938 C 295.582031 51 293.5625 48.605469 291.324219 46.433594 C 289.078125 44.265625 286.605469 42.328125 283.992188 40.601562 C 278.769531 37.136719 272.945312 34.589844 266.929688 32.742188 C 263.917969 31.820312 260.839844 31.089844 257.746094 30.550781 C 254.640625 30.03125 251.5 29.6875 248.355469 29.539062 C 242.066406 29.261719 235.730469 29.761719 229.652344 31.304688 C 226.617188 32.078125 223.652344 33.117188 220.824219 34.4375 C 217.992188 35.753906 215.320312 37.394531 212.855469 39.296875 C 210.394531 41.203125 208.152344 43.394531 206.210938 45.832031 C 204.257812 48.269531 202.617188 50.910156 201.214844 53.746094 C 198.320312 59.382812 195.855469 65.246094 194.054688 71.300781 L 193.382812 73.574219 L 192.832031 75.878906 L 192.558594 77.027344 L 192.421875 77.605469 L 192.3125 78.183594 L 191.894531 80.511719 C 191.824219 80.898438 191.75 81.285156 191.6875 81.675781 L 191.265625 85.191406 C 191.183594 85.972656 191.167969 86.761719 191.113281 87.542969 L 191.046875 88.722656 L 191.015625 89.308594 L 191.019531 89.898438 C 191.050781 91.46875 191.003906 93.042969 191.183594 94.601562 C 191.257812 95.382812 191.292969 96.167969 191.386719 96.945312 C 191.507812 97.71875 191.625 98.492188 191.734375 99.269531 C 191.792969 99.65625 191.832031 100.050781 191.910156 100.429688 L 192.160156 101.578125 C 192.332031 102.34375 192.480469 103.117188 192.667969 103.878906 L 193.355469 106.128906 C 193.472656 106.503906 193.570312 106.886719 193.707031 107.253906 L 194.148438 108.347656 C 194.453125 109.070312 194.730469 109.808594 195.058594 110.523438 L 196.160156 112.609375 C 196.347656 112.953125 196.523438 113.304688 196.71875 113.648438 C 196.917969 113.984375 197.125 114.324219 197.335938 114.65625 C 197.753906 115.320312 198.191406 115.976562 198.644531 116.617188 C 200.460938 119.191406 202.554688 121.566406 204.855469 123.71875 C 209.457031 128.035156 214.867188 131.445312 220.601562 134.105469 C 226.347656 136.769531 232.4375 138.652344 238.625 140.042969 L 238.566406 140.035156 C 243.410156 140.691406 248.296875 141.046875 253.171875 140.941406 C 255.613281 140.902344 258.042969 140.707031 260.457031 140.433594 C 262.875 140.140625 265.265625 139.703125 267.628906 139.148438 C 269.988281 138.589844 272.300781 137.847656 274.558594 136.980469 C 276.816406 136.105469 279.011719 135.082031 281.101562 133.867188 C 285.285156 131.457031 289.078125 128.382812 292.214844 124.730469 Z M 293.699219 126.023438 C 290.386719 129.824219 286.394531 133.011719 282.023438 135.480469 C 279.839844 136.726562 277.550781 137.773438 275.207031 138.664062 C 272.863281 139.546875 270.46875 140.296875 268.03125 140.851562 C 265.597656 141.40625 263.132812 141.839844 260.65625 142.121094 C 258.175781 142.382812 255.691406 142.566406 253.199219 142.585938 C 248.222656 142.664062 243.257812 142.253906 238.34375 141.570312 L 238.316406 141.566406 L 238.285156 141.558594 C 232.015625 140.121094 225.832031 138.183594 219.980469 135.441406 C 214.140625 132.703125 208.609375 129.1875 203.894531 124.730469 C 201.535156 122.507812 199.394531 120.050781 197.53125 117.394531 C 197.066406 116.730469 196.621094 116.054688 196.1875 115.367188 C 195.976562 115.023438 195.765625 114.675781 195.558594 114.324219 C 195.359375 113.972656 195.175781 113.609375 194.984375 113.253906 L 193.839844 111.105469 C 193.5 110.367188 193.183594 109.621094 192.851562 108.878906 L 192.351562 107.765625 C 192.195312 107.390625 192.074219 107.003906 191.933594 106.621094 L 191.113281 104.324219 C 190.878906 103.546875 190.683594 102.753906 190.46875 101.96875 L 190.152344 100.785156 C 190.050781 100.390625 190 99.988281 189.925781 99.585938 C 189.78125 98.785156 189.640625 97.984375 189.507812 97.179688 C 189.398438 96.371094 189.351562 95.558594 189.273438 94.75 C 189.082031 93.128906 189.125 91.5 189.089844 89.875 L 189.082031 89.265625 L 189.113281 88.65625 L 189.179688 87.441406 C 189.230469 86.632812 189.246094 85.816406 189.328125 85.011719 L 189.609375 82.59375 L 189.753906 81.386719 C 189.8125 80.988281 189.890625 80.589844 189.960938 80.191406 L 190.386719 77.796875 L 190.492188 77.199219 L 190.632812 76.609375 L 190.910156 75.425781 L 191.46875 73.066406 L 192.148438 70.738281 C 193.972656 64.535156 196.46875 58.554688 199.386719 52.8125 C 202.222656 46.976562 206.359375 41.628906 211.558594 37.632812 C 214.148438 35.621094 216.949219 33.886719 219.910156 32.496094 C 222.867188 31.105469 225.960938 30.015625 229.113281 29.195312 C 235.4375 27.585938 241.980469 27.0625 248.457031 27.34375 C 251.695312 27.492188 254.917969 27.839844 258.121094 28.371094 C 261.324219 28.925781 264.476562 29.667969 267.578125 30.613281 C 273.773438 32.507812 279.789062 35.128906 285.234375 38.726562 C 287.953125 40.519531 290.535156 42.535156 292.894531 44.808594 C 295.246094 47.082031 297.371094 49.597656 299.199219 52.328125 C 302.863281 57.785156 305.140625 64.144531 305.964844 70.636719 C 306.777344 77.042969 307.0625 83.511719 306.695312 89.972656 C 306.535156 93.203125 306.152344 96.429688 305.585938 99.621094 C 305.015625 102.8125 304.261719 105.976562 303.207031 109.058594 C 301.125 115.210938 298.003906 121.082031 293.699219 126.023438 Z M 293.699219 126.023438 " fill-opacity="1" fill-rule="nonzero"/><path fill="#2b2b2b" d="M 295.15625 107.933594 C 293.03125 119.601562 286.765625 129.496094 278.082031 136.472656 C 267.628906 141.347656 254.328125 143.054688 238.453125 140.796875 C 222.804688 137.3125 210.960938 131.027344 202.894531 122.777344 C 197.230469 113.191406 194.859375 101.71875 196.984375 90.050781 C 201.777344 63.730469 227.636719 46.402344 254.746094 51.339844 C 281.855469 56.277344 299.949219 81.613281 295.15625 107.933594 Z M 295.15625 107.933594 " fill-opacity="1" fill-rule="nonzero"/><path fill="#f6f4f1" d="M 203.808594 98.984375 C 202.238281 99.101562 203.863281 111.417969 211.355469 120.960938 C 219.816406 131.734375 234.675781 134.734375 235.214844 132.78125 C 236.003906 129.941406 225.203125 129.554688 215.480469 120.085938 C 207.210938 112.027344 205.542969 98.855469 203.808594 98.984375 Z M 203.808594 98.984375 " fill-opacity="1" fill-rule="nonzero"/><path fill="#f6f4f1" d="M 288.886719 91.328125 C 290.003906 91.105469 289.960938 86.511719 288.117188 81.769531 C 286.164062 76.75 281.714844 73.15625 280.796875 73.738281 C 280.148438 74.148438 281.160156 75.554688 283.667969 80.605469 C 287.1875 87.695312 287.867188 91.527344 288.886719 91.328125 Z M 288.886719 91.328125 " fill-opacity="1" fill-rule="nonzero"/><path fill="#f6f4f1" d="M 278.761719 70.117188 C 278.011719 68.625 275.410156 68.398438 274.964844 69.082031 C 274.730469 69.449219 275.113281 70.082031 275.28125 70.351562 C 276.109375 71.707031 278.113281 72.402344 278.757812 71.796875 C 279.144531 71.429688 279.007812 70.609375 278.761719 70.117188 Z M 278.761719 70.117188 " fill-opacity="1" fill-rule="nonzero"/></svg>